<?xml version='1.0' encoding='UTF-8' standalone='no'?>
<svg xmlns="http://www.w3.org/2000/svg" gorn="0" height="0.24569902in" viewBox="0 0 200 245.69902"  width="0.2in" version="1.1" id="svg135">
    <desc>
        <referenceFile>Lenny_Screw_Terminal_Small_12acfd1bd3e0fc8298e0f0cda929dd22_1_breadboard.svg</referenceFile>
    </desc>
    <metadata  id="metadata141">
        <rdf:RDF xmlns:rdf="http://www.w3.org/1999/02/22-rdf-syntax-ns#">
            <cc:Work xmlns:cc="http://creativecommons.org/ns#" xmlns:rdf="http://www.w3.org/1999/02/22-rdf-syntax-ns#" rdf:about="">
                <dc:format xmlns:dc="http://purl.org/dc/elements/1.1/">image/svg+xml</dc:format>
                <dc:type xmlns:rdf="http://www.w3.org/1999/02/22-rdf-syntax-ns#" xmlns:dc="http://purl.org/dc/elements/1.1/" rdf:resource="http://purl.org/dc/dcmitype/StillImage"/>
                <dc:title xmlns:dc="http://purl.org/dc/elements/1.1/"/>
            </cc:Work>
        </rdf:RDF>
    </metadata>
    <defs  id="defs139"/>
    <desc  id="desc10"/>
    <desc  id="desc12"/>
    <polygon gorn="0.4" points="0,0 0,39.949 3.988,39.949 3.988,72.406 0,72.406 0,157.607 196.012,157.607 196.012,72.406 200,72.406 200,39.949 196.012,39.949 196.012,0 "  style="fill:#318925" id="background"/>
    <rect x="1.756" gorn="0.5" height="5.7600002"  width="192.745" style="fill:#48af52;stroke-width:0" id="upperstripe" y="2.382"/>
    <rect x="0" gorn="0.6" height="159.53799"  width="196.01199" style="fill:#0e4611;stroke-width:0" id="lowerrect" y="86.114998"/>
    <path gorn="0.7" d="m 49.03,81.988 c 19.057,0 34.574,-15.758 34.574,-35.171 H 14.442 C 14.429,66.244 29.933,81.988 49.03,81.988 Z"  style="fill:#48af52" id="path17"/>
    <path gorn="0.8" d="m 49.03,11.659 c -19.084,0 -34.588,15.772 -34.588,35.158 h 69.162 c 0,-19.414 -15.49,-35.158 -34.574,-35.158 z"  style="fill:#125815" id="path19"/>
    <g gorn="0.9"  id="g25">
        <path gorn="0.9.0" d="m 49.0302,75.3417 c -15.4904,0 -28.0678,-12.7947 -28.0678,-28.5526 0,-15.7302 12.5774,-28.5387 28.0678,-28.5387 15.4768,0 28.0542,12.7947 28.0542,28.5387 C 77.0707,62.547 64.4933,75.3417 49.0302,75.3417 Z"  style="fill:#8b8b8b" id="path21"/>
        <path gorn="0.9.1" d="m 49.0302,18.8043 c 15.2045,0 27.5097,12.5454 27.5097,27.9848 0,15.4533 -12.3052,27.9987 -27.5097,27.9987 -15.2045,0 -27.537,-12.5454 -27.537,-27.9987 C 21.4796,31.3497 33.812,18.8043 49.0302,18.8043 m 0,-1.0247 c -15.749,0 -28.585,13.0301 -28.585,29.0511 0,16.021 12.8088,29.0788 28.585,29.0788 15.7218,0 28.5578,-13.0162 28.5578,-29.0788 C 77.5744,30.8096 64.7655,17.7796 49.0302,17.7796 Z"  id="path23"/>
    </g>
    <g gorn="0.10"  id="g29">
        <path gorn="0.10.0" d="m 22.3236,40.2395 c -0.5037,2.1186 -0.844,4.3341 -0.844,6.5912 0,2.28476 0.340298,4.45874 0.843939,6.63273 h 53.386 c 0.503641,-2.1186 0.843939,-4.32027 0.843939,-6.63273 0,-2.25707 -0.313074,-4.43105 -0.843939,-6.59119 z"  style="fill:#707070" id="path27"/>
    </g>
    <g gorn="0.11"  id="g35">
        <rect x="42.5373" gorn="0.11.0" height="47.467602"  width="12.9586" style="fill:#545252;stroke-width:0" id="rect31" y="23.083"/>
        <rect x="28.612301" gorn="0.11.1" height="13.1685"  width="40.822201" style="fill:#545252;stroke-width:0" id="rect33" y="40.239498"/>
    </g>
    <g gorn="0.12"  style="opacity:0.5" id="g39">
        <path gorn="0.12.0" d="m 49.0302,21.1167 c 13.8978,0 25.2365,11.5346 25.2365,25.6724 0,14.1655 -11.3387,25.6862 -25.2365,25.6862 -13.925,0 -25.2637,-11.5346 -25.2637,-25.6862 -0.0137,-14.1378 11.325,-25.6724 25.2637,-25.6724 m 0,-2.3124 c -15.2045,0 -27.5369,12.5454 -27.5369,27.9848 0,15.4533 12.3324,27.9987 27.5369,27.9987 15.2045,0 27.5097,-12.5454 27.5097,-27.9987 C 76.5671,31.3497 64.2347,18.8043 49.0302,18.8043 Z"  id="path37"/>
    </g>
    <rect x="14.429" gorn="0.13" height="28.150999"  width="69.176003" style="fill:#0b350d;stroke-width:0" id="rect41" y="93.966003"/>
    <rect x="14.429" gorn="0.14" height="29.202999"  width="69.176003" style="fill:#155d19;stroke-width:0" id="rect43" y="122.131"/>
    <rect x="32.083" gorn="0.15" height="35.075001"  width="33.867001" style="fill:#155d19;stroke-width:0" id="rect45" y="122.491"/>
    <rect x="17.26" gorn="0.16" height="52.868"  width="63.541" style="fill:#8d8c8c;stroke-width:0" id="rect47" y="96.431"/>
    <path gorn="0.17" d="m 49.03,146.197 c 15.069,0 27.333,-9.084 27.333,-20.355 h -54.72 c 0.027,11.271 12.278,20.355 27.387,20.355 z"  style="fill:#a0a0a0" id="path49"/>
    <path gorn="0.18" d="m 49.03,105.584 c -15.095,0 -27.387,9.084 -27.387,20.314 h 54.72 C 76.349,114.667 64.126,105.584 49.03,105.584 Z"  style="fill:#565656" id="path51"/>
    <ellipse rx="21.207001" gorn="0.19" ry="15.758" cx="49.015999"  style="fill:#383838;stroke-width:0" cy="125.897" id="ellipse53"/>
    <g gorn="0.20"  id="g61">
        <polygon gorn="0.20.0" points="17.2599,103.271 18.1175,96.0569 80.8004,96.9431 79.9292,104.157 76.989,103.271 67.0115,116.467 30.8446,116.467 21.8335,103.631 "  style="fill:#919291" id="polygon55"/>
        <g gorn="0.20.1"  id="g59">
            <path gorn="0.20.1.0" d="m 79.0581,97.8293 v 4.55567 l -2.0554,3e-5 h -0.8848 l -0.5037,0.72 -9.0247,12.476 H 31.7158 l -9.1745,-12.49 -0.5308,-0.706 h -0.8576 -2.137 v -4.5557 h 60.0422 m 1.7423,-1.7724 H 17.2599 v 8.10051 h 3.8794 l 9.7053,13.1962 h 36.5889 l 9.54196,-13.1962 h 3.79773 z"  style="fill:#57585a" id="path57"/>
        </g>
    </g>
    <rect x="34.778" gorn="0.21" height="96.593903"  width="28.503" style="fill:#8c8c8c;stroke-width:0" id="rect63" y="149.1051"/>
    <rect x="34.287998" gorn="0.22" height="60.084"  width="31.524" style="fill:none;stroke-width:0" id="connector0pin" y="109.874"/>
    <path gorn="0.23" d="m 149.03,81.988 c 19.057,0 34.574,-15.758 34.574,-35.171 h -69.162 c -0.013,19.427 15.491,35.171 34.588,35.171 z"  style="fill:#48af52" id="path66"/>
    <path gorn="0.24" d="m 149.03,11.659 c -19.084,0 -34.588,15.772 -34.588,35.158 h 69.162 c 0,-19.414 -15.49,-35.158 -34.574,-35.158 z"  style="fill:#125815" id="path68"/>
    <g  transform="translate(100)">
        <g gorn="0.25.0"  id="g78">
            <g gorn="0.25.0.0"  id="g76">
                <g gorn="0.25.0.0.0"  id="g74">
                    <path gorn="0.25.0.0.0.0" d="m 49.0302,75.3417 c -15.4904,0 -28.0678,-12.7947 -28.0678,-28.5526 0,-15.7302 12.5774,-28.5387 28.0678,-28.5387 15.4768,0 28.0542,12.7947 28.0542,28.5387 C 77.0707,62.547 64.4933,75.3417 49.0302,75.3417 Z"  style="fill:#8b8b8b" id="path70"/>
                    <path gorn="0.25.0.0.0.1" d="m 49.0302,18.8043 c 15.2045,0 27.5097,12.5454 27.5097,27.9848 0,15.4533 -12.3052,27.9987 -27.5097,27.9987 -15.2045,0 -27.537,-12.5454 -27.537,-27.9987 C 21.4796,31.3497 33.812,18.8043 49.0302,18.8043 m 0,-1.0247 c -15.749,0 -28.585,13.0301 -28.585,29.0511 0,16.021 12.8088,29.0788 28.585,29.0788 15.7218,0 28.5578,-13.0162 28.5578,-29.0788 C 77.5744,30.8096 64.7655,17.7796 49.0302,17.7796 Z"  id="path72"/>
                </g>
            </g>
        </g>
    </g>
    <g  transform="translate(100)">
        <g gorn="0.26.0"  id="g86">
            <g gorn="0.26.0.0"  id="g84">
                <g gorn="0.26.0.0.0"  id="g82">
                    <path gorn="0.26.0.0.0.0" d="m 22.3236,40.2395 c -0.5037,2.1186 -0.844,4.3341 -0.844,6.5912 0,2.28476 0.340298,4.45874 0.843939,6.63273 h 53.386 c 0.503641,-2.1186 0.843939,-4.32027 0.843939,-6.63273 0,-2.25707 -0.313074,-4.43105 -0.843939,-6.59119 z"  style="fill:#707070" id="path80"/>
                </g>
            </g>
        </g>
    </g>
    <g  transform="translate(100)">
        <g gorn="0.27.0"  id="g96">
            <g gorn="0.27.0.0"  id="g94">
                <g gorn="0.27.0.0.0"  id="g92">
                    <rect x="42.5373" gorn="0.27.0.0.0.0" height="47.467602"  width="12.9586" style="fill:#545252;stroke-width:0" id="rect88" y="23.083"/>
                    <rect x="28.612301" gorn="0.27.0.0.0.1" height="13.1685"  width="40.822201" style="fill:#545252;stroke-width:0" id="rect90" y="40.239498"/>
                </g>
            </g>
        </g>
    </g>
    <g  transform="translate(100)">
        <g gorn="0.28.0"  id="g104">
            <g gorn="0.28.0.0"  id="g102">
                <g gorn="0.28.0.0.0"  style="opacity:0.5" id="g100">
                    <path gorn="0.28.0.0.0.0" d="m 49.0302,21.1167 c 13.8978,0 25.2365,11.5346 25.2365,25.6724 0,14.1655 -11.3387,25.6862 -25.2365,25.6862 -13.925,0 -25.2637,-11.5346 -25.2637,-25.6862 -0.0137,-14.1378 11.325,-25.6724 25.2637,-25.6724 m 0,-2.3124 c -15.2045,0 -27.5369,12.5454 -27.5369,27.9848 0,15.4533 12.3324,27.9987 27.5369,27.9987 15.2045,0 27.5097,-12.5454 27.5097,-27.9987 C 76.5671,31.3497 64.2347,18.8043 49.0302,18.8043 Z"  id="path98"/>
                </g>
            </g>
        </g>
    </g>
    <rect x="114.429" gorn="0.29" height="28.150999"  width="69.176003" style="fill:#0b350d;stroke-width:0" id="rect106" y="93.966003"/>
    <rect x="114.429" gorn="0.30" height="29.202999"  width="69.176003" style="fill:#155d19;stroke-width:0" id="rect108" y="122.131"/>
    <rect x="132.08299" gorn="0.31" height="35.075001"  width="33.867001" style="fill:#155d19;stroke-width:0" id="rect110" y="122.491"/>
    <rect x="117.26" gorn="0.32" height="52.868"  width="63.541" style="fill:#8d8c8c;stroke-width:0" id="rect112" y="96.431"/>
    <path gorn="0.33" d="m 149.03,146.197 c 15.069,0 27.333,-9.084 27.333,-20.355 h -54.72 c 0.027,11.271 12.278,20.355 27.387,20.355 z"  style="fill:#a0a0a0" id="path114"/>
    <path gorn="0.34" d="m 149.03,105.584 c -15.095,0 -27.387,9.084 -27.387,20.314 h 54.72 c -0.014,-11.231 -12.237,-20.314 -27.333,-20.314 z"  style="fill:#565656" id="path116"/>
    <ellipse rx="21.207001" gorn="0.35" ry="15.758" cx="149.01601"  style="fill:#383838;stroke-width:0" cy="125.897" id="ellipse118"/>
    <g  transform="translate(100)">
        <g gorn="0.36.0"  id="g130">
            <g gorn="0.36.0.0"  id="g128">
                <g gorn="0.36.0.0.0"  id="g126">
                    <polygon gorn="0.36.0.0.0.0" points="17.2599,103.271 18.1175,96.0569 80.8004,96.9431 79.9292,104.157 76.989,103.271 67.0115,116.467 30.8446,116.467 21.8335,103.631 "  style="fill:#919291" id="polygon120"/>
                    <g gorn="0.36.0.0.0.1"  id="g124">
                        <path gorn="0.36.0.0.0.1.0" d="m 79.0581,97.8293 v 4.55567 l -2.0554,3e-5 h -0.8848 l -0.5037,0.72 -9.0247,12.476 H 31.7158 l -9.1745,-12.49 -0.5308,-0.706 h -0.8576 -2.137 v -4.5557 h 60.0422 m 1.7423,-1.7724 H 17.2599 v 8.10051 h 3.8794 l 9.7053,13.1962 h 36.5889 l 9.54196,-13.1962 h 3.79773 z"  style="fill:#57585a" id="path122"/>
                    </g>
                </g>
            </g>
        </g>
    </g>
    <rect x="134.77901" gorn="0.37" height="96.593903"  width="28.503" style="fill:#8c8c8c;stroke-width:0" id="rect132" y="149.1051"/>
    <rect x="134.28799" gorn="0.38" height="60.084"  width="31.524" style="fill:none;stroke-width:0" id="connector1pin" y="109.874"/>
</svg>
