<?xml version="1.0" encoding="UTF-8" standalone="no"?>
<svg
   xmlns:dc="http://purl.org/dc/elements/1.1/"
   xmlns:cc="http://creativecommons.org/ns#"
   xmlns:rdf="http://www.w3.org/1999/02/22-rdf-syntax-ns#"
   xmlns:svg="http://www.w3.org/2000/svg"
   xmlns="http://www.w3.org/2000/svg"
   xmlns:sodipodi="http://sodipodi.sourceforge.net/DTD/sodipodi-0.dtd"
   xmlns:inkscape="http://www.inkscape.org/namespaces/inkscape"
   width="0.34364in"
   height="0.26713923in"
   x="0in"
   y="0in"
   viewBox="0 0 343.64 267.13922"
   version="1.1"
   id="svg3792"
   sodipodi:docname="Lenny_Screw_Terminal_0374254a4370a618544ca4152705e55e_1_breadboard.svg"
   inkscape:version="0.92.1 r15371">
  <metadata
     id="metadata3798">
    <rdf:RDF>
      <cc:Work
         rdf:about="">
        <dc:format>image/svg+xml</dc:format>
        <dc:type
           rdf:resource="http://purl.org/dc/dcmitype/StillImage" />
        <dc:title></dc:title>
      </cc:Work>
    </rdf:RDF>
  </metadata>
  <defs
     id="defs3796" />
  <sodipodi:namedview
     pagecolor="#ffffff"
     bordercolor="#666666"
     borderopacity="1"
     objecttolerance="10"
     gridtolerance="10"
     guidetolerance="10"
     inkscape:pageopacity="0"
     inkscape:pageshadow="2"
     inkscape:window-width="1920"
     inkscape:window-height="996"
     id="namedview3794"
     showgrid="false"
     fit-margin-top="0"
     fit-margin-left="0"
     fit-margin-right="0"
     fit-margin-bottom="0"
     inkscape:zoom="14.357638"
     inkscape:cx="15.842112"
     inkscape:cy="12.824085"
     inkscape:window-x="1672"
     inkscape:window-y="-8"
     inkscape:window-maximized="1"
     inkscape:current-layer="svg3792" />
  <desc
     id="desc3680">
    <referenceFile>Lenny_Screw_Terminal_b60cbbcd2ee9bc1c298b305331abbbf4_3_breadboard.svg</referenceFile>
  </desc>
  <desc
     id="desc3682" />
  <desc
     id="desc3684" />
  <desc
     id="desc3686" />
  <desc
     id="desc3688">Fritzing breadboard generated by brd2svg</desc>
  <polygon
     points="82.214,238.112 75.506,238.112 75.506,343.987 243.965,343.987 412.422,343.987 412.422,238.112 419.146,238.112 419.146,193.626 412.422,193.626 412.422,166.445 243.965,166.445 75.506,166.445 75.506,193.626 82.214,193.626 "
     id="polygon3690"
     style="fill:#254e89"
     transform="translate(-75.506,-166.445)" />
  <polygon
     points="412.422,433.556 412.422,252.626 243.965,252.626 75.506,252.626 75.506,433.556 243.965,433.556 "
     id="polygon3692"
     style="fill:#123c66"
     transform="translate(-75.506,-166.445)" />
  <g
     transform="translate(65.494,10e-6)"
     id="g3741">
    <g
       id="g3739">
      <g
         id="g3737">
        <g
           id="g3735">
          <g
             id="g3733">
            <path
               d="m 206.333,75.4583 c 17.3056,0 31.4167,-14.3056 31.4167,-31.9722 H 174.958 C 174.903,61.1667 189,75.4583 206.333,75.4583 Z"
               id="path3694"
               inkscape:connector-curvature="0"
               style="fill:#3a5c8e" />
            <path
               d="m 206.333,11.5972 c -17.3056,0 -31.3889,14.3194 -31.3889,31.9167 h 62.7778 C 237.722,25.9028 223.667,11.5972 206.333,11.5972 Z"
               id="path3696"
               inkscape:connector-curvature="0"
               style="fill:#123c66" />
            <polygon
               points="195.319,191.778 195.319,267.097 217.486,267.097 217.486,191.778 242.111,191.778 242.111,93.5417 168.736,93.5417 168.736,191.778 "
               id="polygon3698"
               style="fill:#254e89" />
            <rect
               height="92.805603"
               width="67.416702"
               y="96.013901"
               x="171.73599"
               id="rect3700"
               style="fill:#8d8c8c" />
            <path
               d="m 205.417,158.458 c 15.9722,0 28.9722,-13.2083 28.9722,-29.5556 h -58.0278 c 0.0276,16.3476 13.0416,29.5556 29.0556,29.5556 z"
               id="path3702"
               inkscape:connector-curvature="0"
               style="fill:#a0a0a0" />
            <path
               d="m 205.417,99.5 c -15.9861,0 -29.0556,13.1667 -29.0556,29.4861 h 58.0278 C 234.389,112.681 221.472,99.5 205.417,99.5 Z"
               id="path3704"
               inkscape:connector-curvature="0"
               style="fill:#565656" />
            <ellipse
               rx="22.486099"
               gorn="0.7.0.0.0.0.6"
               ry="22.888901"
               id="connector1pin"
               cx="205.38901"
               cy="128.98599"
               style="fill:#383838" />
            <rect
               height="78.347198"
               width="16.4722"
               y="188.79201"
               x="198.194"
               id="rect3707"
               style="fill:#6d6d6d" />
            <g
               id="g3713">
              <g
                 id="g3711">
                <polygon
                   stroke-miterlimit="10"
                   points="172.889,102.431 172.889,97.1528 238.042,97.1528 238.042,102.361 235.875,102.361 224.778,112.847 186.208,112.847 176.194,102.681 "
                   id="polygon3709"
                   style="fill:#a0a0a0;stroke:#57585a;stroke-width:2.36110997;stroke-miterlimit:10" />
              </g>
            </g>
            <g
               id="g3725">
              <path
                 d="m 206.333,69.2639 c -13.9722,0 -25.3333,-11.5556 -25.3333,-25.7639 0,-14.1806 11.3611,-25.75 25.3333,-25.75 6.68056,0 13.0278,2.61111 17.7917,7.41667 4.86111,4.88889 7.54167,11.375 7.54167,18.3194 C 231.667,57.7083 220.306,69.2639 206.333,69.2639 Z"
                 id="path3715"
                 inkscape:connector-curvature="0"
                 style="fill:#8b8b8b" />
              <g
                 id="g3719">
                <path
                   d="m 206.333,18.0833 c 13.8056,0 25.0139,11.3889 24.9861,25.4167 0,14.0556 -11.1806,25.4167 -24.9861,25.4167 -13.7778,0 -24.9861,-11.3611 -24.9861,-25.4167 1e-4,-14.0278 11.2091,-25.4167 24.9861,-25.4167 m 0,-0.6944 c -14.1806,0 -25.7083,11.7083 -25.7083,26.1111 0,14.4028 11.5,26.1389 25.7083,26.1389 14.1667,0 25.6667,-11.7361 25.6667,-26.1389 0.0278,-7.04167 -2.68056,-13.6111 -7.625,-18.5972 -4.8607,-4.8472 -11.2777,-7.5139 -18.0417,-7.5139 z"
                   id="path3717"
                   inkscape:connector-curvature="0" />
              </g>
              <g
                 id="g3723"
                 style="opacity:0.5">
                <path
                   d="m 206.333,20.1667 c 6.05556,0 11.75,2.375 16.0556,6.69444 4.375,4.40278 6.81944,10.3056 6.79167,16.6111 0,12.8889 -10.2361,23.3611 -22.8611,23.3611 -12.6389,0 -22.8889,-10.4722 -22.8889,-23.3611 C 183.417,30.6389 193.694,20.1667 206.333,20.1667 m 0,-2.0834 c -13.7778,0 -24.9861,11.3889 -24.9861,25.4167 0,14.0556 11.2083,25.4167 24.9861,25.4167 13.8056,0 24.9861,-11.3611 24.9861,-25.4167 C 231.333,29.4722 220.139,18.0833 206.333,18.0833 Z"
                   id="path3721"
                   inkscape:connector-curvature="0" />
              </g>
            </g>
            <g
               id="g3729">
              <path
                 d="m 183.417,43.5 c 0,2.11111 0.34722,4.11111 0.86111,6.08333 h 44.0278 C 228.833,47.6389 229.167,45.625 229.167,43.5 c 0,-2.02778 -0.30556,-4.02778 -0.84722,-5.95833 h -44.0833 C 183.792,39.4583 183.417,41.4306 183.417,43.5 Z"
                 id="path3727"
                 inkscape:connector-curvature="0"
                 style="fill:#707070" />
            </g>
            <polygon
               points="212.222,21.9861 200.444,21.9861 200.444,37.5417 187.806,37.5417 187.806,49.5 200.444,49.5 200.444,65.0694 212.222,65.0694 212.222,49.5 224.889,49.5 224.889,37.5417 212.222,37.5417 "
               id="polygon3731"
               style="fill:#545252" />
          </g>
        </g>
      </g>
    </g>
  </g>
  <g
     transform="translate(-0.506,10e-6)"
     id="g3790">
    <g
       id="g3788">
      <g
         id="g3786">
        <g
           id="g3784">
          <g
             id="g3782">
            <path
               d="m 68.5278,75.4583 c 17.3056,0 31.4167,-14.3056 31.4167,-31.9722 H 37.1389 c -0.0278,17.6806 14.0555,31.9722 31.3889,31.9722 z"
               id="path3743"
               inkscape:connector-curvature="0"
               style="fill:#3a5c8e" />
            <path
               d="m 68.5278,11.5972 c -17.3056,0 -31.4028,14.3194 -31.4028,31.9167 H 99.9167 C 99.9444,25.9028 85.8611,11.5972 68.5278,11.5972 Z"
               id="path3745"
               inkscape:connector-curvature="0"
               style="fill:#123c66" />
            <polygon
               points="57.5139,191.778 57.5139,267.097 79.7083,267.097 79.7083,191.778 104.306,191.778 104.306,93.5417 30.9306,93.5417 30.9306,191.778 "
               id="polygon3747"
               style="fill:#254e89" />
            <rect
               height="92.805603"
               width="67.416702"
               y="96.013901"
               x="33.944401"
               id="rect3749"
               style="fill:#8d8c8c" />
            <path
               d="m 67.625,158.458 c 15.9722,0 28.9722,-13.2083 28.9722,-29.5556 l -58.0139,6e-4 c 0.0278,16.347 13.0139,29.555 29.0417,29.555 z"
               id="path3751"
               inkscape:connector-curvature="0"
               style="fill:#a0a0a0" />
            <path
               d="m 67.625,99.5 c -16,0 -29.0556,13.1667 -29.0556,29.4861 H 96.5972 C 96.5972,112.681 83.6667,99.5 67.625,99.5 Z"
               id="path3753"
               inkscape:connector-curvature="0"
               style="fill:#565656" />
            <ellipse
               rx="22.486099"
               gorn="0.8.0.0.0.0.6"
               ry="22.888901"
               id="connector0pin"
               cx="67.597198"
               cy="128.98599"
               style="fill:#383838" />
            <rect
               height="78.347198"
               width="16.4722"
               y="188.79201"
               x="60.388901"
               id="rect3756"
               style="fill:#6d6d6d" />
            <g
               id="g3762">
              <g
                 id="g3760">
                <polygon
                   stroke-miterlimit="10"
                   points="35.0833,102.431 35.0833,97.1528 100.236,97.1528 100.236,102.361 98.0694,102.361 86.9722,112.847 48.4306,112.847 38.3889,102.681 "
                   id="polygon3758"
                   style="fill:#a0a0a0;stroke:#57585a;stroke-width:2.36110997;stroke-miterlimit:10" />
              </g>
            </g>
            <g
               id="g3774">
              <path
                 d="m 68.5278,69.2639 c -13.9861,0 -25.3333,-11.5556 -25.3333,-25.7639 0,-14.1806 11.3472,-25.75 25.3333,-25.75 6.68056,0 13.0278,2.61111 17.7778,7.41667 4.875,4.88889 7.54167,11.375 7.54167,18.3194 C 93.8611,57.7083 82.5,69.2639 68.5278,69.2639 Z"
                 id="path3764"
                 inkscape:connector-curvature="0"
                 style="fill:#8b8b8b" />
              <g
                 id="g3768">
                <path
                   d="m 68.5278,18.0833 c 13.7917,0 25.0139,11.3889 24.9861,25.4167 0,14.0556 -11.1944,25.4167 -24.9861,25.4167 -13.7778,0 -25,-11.3611 -25,-25.4167 0.0139,-14.0278 11.2222,-25.4167 25,-25.4167 m 0,-0.6944 c -14.1806,0 -25.7083,11.7083 -25.7083,26.1111 0,14.4028 11.5,26.1389 25.7083,26.1389 14.1667,0 25.6667,-11.7361 25.6667,-26.1389 C 94.2083,36.4583 91.5,29.8611 86.5694,24.9028 81.7083,20.0556 75.3056,17.3889 68.5278,17.3889 Z"
                   id="path3766"
                   inkscape:connector-curvature="0" />
              </g>
              <g
                 id="g3772"
                 style="opacity:0.5">
                <path
                   d="m 68.5278,20.1667 c 6.05556,0 11.75,2.375 16.0417,6.69444 4.38889,4.40278 6.83333,10.3056 6.80556,16.6111 0,12.8889 -10.25,23.3611 -22.8611,23.3611 -12.6389,0 -22.8889,-10.4722 -22.8889,-23.3611 C 45.625,30.6389 55.8889,20.1667 68.5278,20.1667 m 0,-2.0834 c -13.7778,0 -25,11.3889 -25,25.4167 0,14.0556 11.2222,25.4167 25,25.4167 13.7917,0 24.9861,-11.3611 24.9861,-25.4167 C 93.5417,29.4722 82.3194,18.0833 68.5278,18.0833 Z"
                   id="path3770"
                   inkscape:connector-curvature="0" />
              </g>
            </g>
            <g
               id="g3778">
              <path
                 d="m 45.625,43.5 c 0,2.11111 0.347222,4.11111 0.861111,6.08333 h 44.0278 C 91.0417,47.625 91.3889,45.6111 91.3889,43.5 c 0,-2.02778 -0.305556,-4.02778 -0.847222,-5.95833 L 46.4722,37.5417 C 45.9861,39.4583 45.625,41.4306 45.625,43.5 Z"
                 id="path3776"
                 inkscape:connector-curvature="0"
                 style="fill:#707070" />
            </g>
            <polygon
               points="74.4167,21.9861 62.6389,21.9861 62.6389,37.5417 50,37.5417 50,49.5 62.6389,49.5 62.6389,65.0694 74.4167,65.0694 74.4167,49.5 87.0833,49.5 87.0833,37.5417 74.4167,37.5417 "
               id="polygon3780"
               style="fill:#545252" />
          </g>
        </g>
      </g>
    </g>
  </g>
</svg>
