<?xml version="1.0" encoding="utf-8"?>
<svg width="0.2in" height="0.17in" viewBox="0 0 200 170" xmlns="http://www.w3.org/2000/svg">
  <desc/>
  <g>
    <polygon gorn="0.0.0" points="196.012 39.949 196.012 0 0 0 0 39.949 3.988 39.949 3.988 72.406 0 72.406 0 157.607 196.012 157.607 196.012 72.406 200 72.406 200 39.949" id="background" style="fill: rgb(49, 137, 37);"/>
    <rect stroke-width="0" x="1.756" gorn="0.0.1" height="5.76" width="192.745" id="upperstripe" y="2.382" style="fill: rgb(72, 175, 82);"/>
    <rect stroke-width="0" gorn="0.0.2" height="71.478" width="196.012" id="lowerrect" y="86.115" style="fill: rgb(14, 70, 17);"/>
    <path d="M 49.03 81.988 C 68.087 81.988 83.604 66.23 83.604 46.817 L 14.442 46.817 C 14.429 66.244 29.933 81.988 49.03 81.988 Z" style="fill: rgb(72, 175, 82);"/>
    <path d="M 49.03 11.659 C 29.946 11.659 14.442 27.431 14.442 46.817 L 83.604 46.817 C 83.604 27.403 68.114 11.659 49.03 11.659 Z" style="fill: rgb(18, 88, 21);"/>
    <g>
      <path d="M49.0302,75.3417c-15.4904,0,-28.0678,-12.7947,-28.0678,-28.5526c0,-15.7302,12.5774,-28.5387,28.0678,-28.5387c15.4768,0,28.0542,12.7947,28.0542,28.5387C77.0707,62.547,64.4933,75.3417,49.0302,75.3417L49.0302,75.3417z" fill="#8B8B8B"/>
      <path d="M49.0302,18.8043c15.2045,0,27.5097,12.5454,27.5097,27.9848c0,15.4533,-12.3052,27.9987,-27.5097,27.9987S21.4932,62.2424,21.4932,46.7891C21.4796,31.3497,33.812,18.8043,49.0302,18.8043M49.0302,17.7796c-15.749,0,-28.585,13.0301,-28.585,29.0511c0,16.021,12.8088,29.0788,28.585,29.0788c15.7218,0,28.5578,-13.0162,28.5578,-29.0788C77.5744,30.8096,64.7655,17.7796,49.0302,17.7796L49.0302,17.7796z"/>
    </g>
    <g>
      <path d="M22.3236,40.2395C21.8199,42.3581,21.4796,44.5736,21.4796,46.8307c0,2.28476,0.340298,4.45874,0.843939,6.63273l53.386,0c0.503641,-2.1186,0.843939,-4.32027,0.843939,-6.63273c0,-2.25707,-0.313074,-4.43105,-0.843939,-6.59119L22.3236,40.2395z" fill="#707070"/>
    </g>
    <g>
      <rect stroke-width="0" x="42.5373" height="47.4676" width="12.9586" fill="#545252" y="23.083"/>
      <rect stroke-width="0" x="28.6123" height="13.1685" width="40.8222" fill="#545252" y="40.2395"/>
    </g>
    <g opacity="0.5">
      <path d="M49.0302,21.1167c13.8978,0,25.2365,11.5346,25.2365,25.6724c0,14.1655,-11.3387,25.6862,-25.2365,25.6862c-13.925,0,-25.2637,-11.5346,-25.2637,-25.6862C23.7528,32.6513,35.0915,21.1167,49.0302,21.1167M49.0302,18.8043c-15.2045,0,-27.5369,12.5454,-27.5369,27.9848c0,15.4533,12.3324,27.9987,27.5369,27.9987s27.5097,-12.5454,27.5097,-27.9987C76.5671,31.3497,64.2347,18.8043,49.0302,18.8043L49.0302,18.8043z"/>
    </g>
    <rect stroke-width="0" x="14.429" height="28.151" width="69.176" y="93.966" style="fill: rgb(11, 53, 13);"/>
    <rect stroke-width="0" x="14.429" height="29.203" width="69.176" y="122.131" style="fill: rgb(21, 93, 25);"/>
    <rect stroke-width="0" x="32.083" height="35.075" width="33.867" y="122.491" style="fill: rgb(21, 93, 25);"/>
    <rect stroke-width="0" x="17.26" height="52.868" width="63.541" fill="#8D8C8C" y="96.431"/>
    <path d="M 49.03 146.197 C 64.099 146.197 76.363 137.113 76.363 125.842 L 21.643 125.842 C 21.67 137.113 33.921 146.197 49.03 146.197 Z" fill="#A0A0A0"/>
    <path d="M 49.03 105.584 C 33.935 105.584 21.643 114.668 21.643 125.898 L 76.363 125.898 C 76.349 114.667 64.126 105.584 49.03 105.584 Z" fill="#565656"/>
    <ellipse rx="21.207" stroke-width="0" ry="15.758" cx="49.016" cy="125.897" fill="#383838"/>
    <g>
      <polygon points="30.8446,116.467,21.8335,103.631,17.2599,103.271,18.1175,96.0569,80.8004,96.9431,79.9292,104.157,76.989,103.271,67.0115,116.467" fill="#919291"/>
      <g>
        <path d="M79.0581,97.8293l0,4.55567L77.0027,102.385L76.1179,102.385L75.6142,103.105L66.5895,115.581L31.7158,115.581L22.5413,103.091L22.0105,102.385L21.1529,102.385L19.0159,102.385L19.0159,97.8293L79.0581,97.8293M80.8004,96.0569L17.2599,96.0569l0,8.10051l3.8794,0l9.7053,13.1962l36.5889,0l9.54196,-13.1962l3.79773,0L80.8004,96.0569L80.8004,96.0569z" fill="#57585A"/>
      </g>
    </g>
    <rect stroke-width="0" x="34.778" height="20.84" width="28.503" fill="#8C8C8C" y="149.105"/>
    <rect stroke-width="0" x="34.288" gorn="0.0.5" height="60.084" width="31.524" fill="none" id="connector0pin" y="109.874"/>
    <path d="M 149.03 81.988 C 168.087 81.988 183.604 66.23 183.604 46.817 L 114.442 46.817 C 114.429 66.244 129.933 81.988 149.03 81.988 Z" style="fill: rgb(72, 175, 82);"/>
    <path d="M 149.03 11.659 C 129.946 11.659 114.442 27.431 114.442 46.817 L 183.604 46.817 C 183.604 27.403 168.114 11.659 149.03 11.659 Z" style="fill: rgb(18, 88, 21);"/>
    <g transform="matrix(1, 0, 0, 1, 100, 0)">
      <path d="M49.0302,75.3417c-15.4904,0,-28.0678,-12.7947,-28.0678,-28.5526c0,-15.7302,12.5774,-28.5387,28.0678,-28.5387c15.4768,0,28.0542,12.7947,28.0542,28.5387C77.0707,62.547,64.4933,75.3417,49.0302,75.3417L49.0302,75.3417z" fill="#8B8B8B"/>
      <path d="M49.0302,18.8043c15.2045,0,27.5097,12.5454,27.5097,27.9848c0,15.4533,-12.3052,27.9987,-27.5097,27.9987S21.4932,62.2424,21.4932,46.7891C21.4796,31.3497,33.812,18.8043,49.0302,18.8043M49.0302,17.7796c-15.749,0,-28.585,13.0301,-28.585,29.0511c0,16.021,12.8088,29.0788,28.585,29.0788c15.7218,0,28.5578,-13.0162,28.5578,-29.0788C77.5744,30.8096,64.7655,17.7796,49.0302,17.7796L49.0302,17.7796z"/>
    </g>
    <g transform="matrix(1, 0, 0, 1, 100, 0)">
      <path d="M22.3236,40.2395C21.8199,42.3581,21.4796,44.5736,21.4796,46.8307c0,2.28476,0.340298,4.45874,0.843939,6.63273l53.386,0c0.503641,-2.1186,0.843939,-4.32027,0.843939,-6.63273c0,-2.25707,-0.313074,-4.43105,-0.843939,-6.59119L22.3236,40.2395z" fill="#707070"/>
    </g>
    <g transform="matrix(1, 0, 0, 1, 100, 0)">
      <rect stroke-width="0" x="42.5373" height="47.4676" width="12.9586" fill="#545252" y="23.083"/>
      <rect stroke-width="0" x="28.6123" height="13.1685" width="40.8222" fill="#545252" y="40.2395"/>
    </g>
    <g opacity="0.5" transform="matrix(1, 0, 0, 1, 100, 0)">
      <path d="M49.0302,21.1167c13.8978,0,25.2365,11.5346,25.2365,25.6724c0,14.1655,-11.3387,25.6862,-25.2365,25.6862c-13.925,0,-25.2637,-11.5346,-25.2637,-25.6862C23.7528,32.6513,35.0915,21.1167,49.0302,21.1167M49.0302,18.8043c-15.2045,0,-27.5369,12.5454,-27.5369,27.9848c0,15.4533,12.3324,27.9987,27.5369,27.9987s27.5097,-12.5454,27.5097,-27.9987C76.5671,31.3497,64.2347,18.8043,49.0302,18.8043L49.0302,18.8043z"/>
    </g>
    <rect stroke-width="0" x="114.429" height="28.151" width="69.176" y="93.966" style="fill: rgb(11, 53, 13);"/>
    <rect stroke-width="0" x="114.429" height="29.203" width="69.176" y="122.131" style="fill: rgb(21, 93, 25);"/>
    <rect stroke-width="0" x="132.083" height="35.075" width="33.867" y="122.491" style="fill: rgb(21, 93, 25);"/>
    <rect stroke-width="0" x="117.26" height="52.868" width="63.541" y="96.431" fill="#8D8C8C"/>
    <path d="M 149.03 146.197 C 164.099 146.197 176.363 137.113 176.363 125.842 L 121.643 125.842 C 121.67 137.113 133.921 146.197 149.03 146.197 Z" fill="#A0A0A0"/>
    <path d="M 149.03 105.584 C 133.935 105.584 121.643 114.668 121.643 125.898 L 176.363 125.898 C 176.349 114.667 164.126 105.584 149.03 105.584 Z" fill="#565656"/>
    <ellipse rx="21.207" stroke-width="0" ry="15.758" cx="149.016" cy="125.897" fill="#383838"/>
    <g transform="matrix(1, 0, 0, 1, 100, 0)">
      <polygon points="30.8446,116.467,21.8335,103.631,17.2599,103.271,18.1175,96.0569,80.8004,96.9431,79.9292,104.157,76.989,103.271,67.0115,116.467" fill="#919291"/>
      <g>
        <path d="M79.0581,97.8293l0,4.55567L77.0027,102.385L76.1179,102.385L75.6142,103.105L66.5895,115.581L31.7158,115.581L22.5413,103.091L22.0105,102.385L21.1529,102.385L19.0159,102.385L19.0159,97.8293L79.0581,97.8293M80.8004,96.0569L17.2599,96.0569l0,8.10051l3.8794,0l9.7053,13.1962l36.5889,0l9.54196,-13.1962l3.79773,0L80.8004,96.0569L80.8004,96.0569z" fill="#57585A"/>
      </g>
    </g>
    <rect stroke-width="0" x="134.779" height="20.84" width="28.503" fill="#8C8C8C" y="149.105"/>
    <rect stroke-width="0" x="134.288" gorn="0.0.8" height="60.084" width="31.524" fill="none" id="connector1pin" y="109.874"/>
  </g>
</svg>