<?xml version="1.0" standalone="no"?>
<!DOCTYPE svg PUBLIC "-//W3C//DTD SVG 1.1//EN"
  "http://www.w3.org/Graphics/SVG/1.1/DTD/svg11.dtd">
<svg width="48.697101cm" height="60.479153cm" viewBox="-167.001007 -482.838989 486.971008 604.791534"
     xmlns="http://www.w3.org/2000/svg" version="1.1">
  <title>Rocco Hexapod ~Final (not accurate for printing)</title>
  <desc> made with tinkercad </desc>
<path d=" M -150.147064 -441.778015 L -149.998993 -442.500000 L -150.147064 -443.221985 L -150.266006 -443.802002 L -151.024994 -444.904999 L -151.345993 -445.113708 L -152.160004 -445.643005 L -153.500000 -445.902008 L -154.839005 -445.643005 L -155.287003 -445.351959 L -155.654007 -445.113525 L -155.975006 -444.904999 L -156.000000 -444.868683 L -156.733994 -443.802002 L -157.000000 -442.500000 L -156.733994 -441.197998 L -156.614273 -441.023987 L -156.000000 -440.131317 L -155.975006 -440.095001 L -155.654007 -439.886475 L -154.839005 -439.356995 L -153.500000 -439.097992 L -152.160004 -439.356995 L -151.630997 -439.700958 L -151.024994 -440.095001 L -151.000000 -440.131317 L -150.810303 -440.407013 L -150.266006 -441.197998 z M -160.634995 -479.471008 L -161.423004 -480.240997 L -162.500000 -480.523010 L -163.576996 -480.240997 L -164.365997 -479.471008 L -164.654007 -478.419006 L -164.365997 -477.367004 L -163.576996 -476.596985 L -162.500000 -476.315002 L -161.423004 -476.596985 L -160.634995 -477.367004 L -160.345993 -478.419006 z M 143.058716 33.965343 L 144.084015 34.390034 L 145.590927 35.014210 L 154.237976 38.595886 L 154.251129 38.601330 L 159.124603 40.619968 L 159.125458 40.620323 L 159.786331 39.024734 L 159.890457 38.773186 L 155.016632 36.754181 L 155.002960 36.748516 L 155.002792 36.748451 L 144.849808 32.542538 L 143.824127 32.117641 L 141.078262 30.980156 L 139.641846 30.385181 L 139.635818 30.382689 L 139.635193 30.382425 L 139.467529 30.312981 L 139.466385 30.312506 L 139.463974 30.311508 L 139.460938 30.310251 L 138.617004 29.960688 L 137.315872 29.421743 L 136.550873 31.269745 L 137.851273 31.808384 L 138.696121 32.158321 L 138.698242 32.159206 L 138.701553 32.160576 L 138.870193 32.230427 L 138.870819 32.230686 L 138.875992 32.232826 z M 161.705276 60.126694 L 161.718323 60.095184 L 161.718323 60.095177 L 161.122162 59.848236 L 155.436996 57.493473 L 154.367310 57.050411 L 137.575333 50.095272 L 137.575256 50.095242 L 137.419342 50.471909 L 136.810257 51.942444 L 140.967468 53.664379 L 153.601456 58.898045 L 160.295334 61.671001 L 160.952332 61.943165 L 160.952682 61.942329 L 160.967773 61.905933 L 161.065155 61.671001 z M 155.132401 55.202427 L 154.440308 56.874313 L 154.367416 57.050144 L 155.436996 57.493198 L 161.718307 60.095104 L 162.483292 58.247143 L 162.483322 58.247154 L 162.531586 58.130569 L 163.248306 56.400146 L 163.248322 56.400108 L 163.248322 56.400093 L 163.248306 56.400085 L 163.267899 56.352821 L 164.014313 54.552105 L 164.013824 54.551903 L 164.013138 54.551617 L 161.554184 53.533001 L 156.663513 51.507050 L 155.897522 53.355045 L 154.153259 52.632477 L 154.150650 52.631397 L 149.273941 50.611191 L 149.264236 50.607170 L 146.315948 49.385830 L 146.312927 49.384575 L 139.106216 46.399155 L 138.340210 48.247154 L 138.340286 48.247185 L 138.340714 48.247360 z M -155.454712 -443.221985 L -155.654007 -442.500000 L -155.454712 -441.778015 L -155.365005 -441.453003 L -154.576996 -440.687012 L -153.500000 -440.407013 L -152.423004 -440.687012 L -151.634003 -441.453003 L -151.630997 -441.463898 L -151.544601 -441.778015 L -151.345993 -442.500000 L -151.544601 -443.221985 L -151.634003 -443.546997 L -152.423004 -444.312988 L -153.500000 -444.592987 L -154.576996 -444.312988 L -155.287003 -443.622833 L -155.365005 -443.546997 z M -164.287003 -481.286438 L -163.839996 -481.578003 L -162.500000 -481.838989 L -161.160995 -481.578003 L -160.345993 -481.046387 L -160.024994 -480.837006 L -159.266006 -479.727997 L -159.000000 -478.419006 L -159.266006 -477.110992 L -159.810287 -476.315002 L -159.867050 -476.231995 L -160.024994 -476.001007 L -161.160995 -475.260010 L -162.500000 -475.000000 L -163.839996 -475.260010 L -164.654007 -475.790955 L -164.738998 -475.846405 L -164.975998 -476.001007 L -165.733994 -477.110992 L -166.001007 -478.419006 L -165.733994 -479.727997 L -164.975998 -480.837006 L -164.738998 -480.991608 L -164.654007 -481.047028 z M 25.063999 -178.467896 L 25.063999 -179.882095 L 23.063000 -179.882095 L 23.063000 -178.467896 z M 128.135941 43.749973 L 127.878998 43.644001 L 127.441460 43.462551 L 127.279266 43.395290 L 127.029861 43.291779 L 126.975998 43.269482 L 126.926102 43.248829 L 126.053162 42.887512 L 126.623177 41.510971 L 126.722878 41.270348 L 126.648537 41.239559 L 125.775665 40.877998 L 125.107002 40.601032 L 123.897102 40.099873 L 110.134544 34.399227 L 110.900543 32.551228 L 124.662209 38.251610 L 125.112320 38.438057 L 125.322998 38.525326 L 134.662827 42.394089 L 134.662857 42.394104 L 134.662918 42.393982 L 134.663513 42.394230 L 134.663986 42.394424 L 138.848923 44.127853 L 137.995926 46.187000 L 132.733002 58.891762 L 130.428909 64.453850 L 128.049759 63.468472 L 126.248512 62.722237 L 126.247879 62.721977 L 126.243790 62.720284 L 126.243057 62.719982 L 132.366592 47.937687 L 130.984116 47.365002 L 130.182663 47.033001 L 128.606003 46.379871 L 128.358810 46.277473 L 127.992561 46.125751 L 127.900764 46.347458 L 127.705330 46.818943 L 127.201462 46.610104 L 126.975998 46.516785 L 126.970413 46.514473 L 126.892105 46.481998 L 126.822083 46.452965 L 126.458649 46.302265 L 126.411865 46.282833 L 126.080231 46.145111 L 125.895950 46.068855 L 125.840439 46.045918 L 125.478355 45.896305 L 125.450996 45.884998 L 125.384621 45.857471 L 125.330055 45.834843 L 124.928001 45.668243 L 124.820961 45.623890 L 124.417130 45.456673 L 124.332001 45.421406 L 123.931587 45.255527 L 123.196671 44.951057 L 123.483276 44.257790 L 122.879997 44.007885 L 122.679001 43.924618 L 122.367264 43.795483 L 123.132263 41.947483 L 125.107002 42.765514 L 125.322998 42.854992 L 126.975998 43.539745 L 128.131958 44.018600 L 128.226593 43.790287 L 128.227356 43.788464 L 128.227585 43.787899 z M 127.150490 39.011940 L 127.114586 38.997036 L 126.975998 38.939518 L 126.859245 38.891056 L 126.419960 38.709064 L 126.802963 37.785065 L 126.975998 37.856785 L 127.103767 37.909744 L 127.104271 37.909954 L 127.242241 37.967056 L 127.922287 38.249043 L 128.236603 38.378895 L 128.556763 38.511337 L 128.938995 38.669998 L 129.024002 38.705250 L 129.219269 38.786228 L 129.642075 38.961430 L 130.208862 39.196121 L 130.344849 39.252426 L 130.344894 39.252449 L 130.635757 39.372944 L 130.636215 39.373131 L 130.636444 39.373230 L 131.072006 39.553677 L 131.075043 39.554935 L 131.072006 39.562263 L 130.962860 39.825581 L 130.692871 40.478645 L 130.692749 40.478935 L 130.652405 40.462227 L 130.649460 40.460999 L 130.391724 40.354233 L 130.253494 40.296944 L 130.221405 40.283676 L 130.131561 40.246521 L 129.572708 40.015411 L 129.259079 39.885429 L 129.024002 39.787933 L 128.960678 39.761673 L 128.938950 39.752663 L 128.556000 39.594002 L 128.443985 39.547611 L 128.276001 39.478039 L 127.853920 39.303570 L 127.436996 39.130722 z M -143.000000 -394.000000 L -156.000000 -394.000000 L -157.000000 -394.000000 L -158.001007 -394.000000 L -158.001007 -406.001007 L -157.000000 -406.001007 L -156.000000 -406.001007 L -143.000000 -406.001007 L -136.001007 -406.001007 L -136.000000 -406.001007 L -136.000000 -405.460876 L -136.000000 -404.569977 L -136.000000 -403.833954 L -136.000000 -403.210022 L -136.000000 -402.711334 L -136.000000 -402.379211 L -135.998993 -402.379211 L -129.998993 -402.379211 L -129.998993 -401.407990 L -129.998993 -398.000000 L -129.998993 -397.621796 L -135.998993 -397.621796 L -136.000000 -397.621796 L -136.000000 -397.558716 L -136.000000 -394.913055 L -136.000000 -394.000000 L -136.001007 -394.000000 z M -64.975998 -330.001007 L -65.734001 -331.110992 L -66.000999 -332.419006 L -65.734001 -333.727997 L -64.975998 -334.837006 L -64.738998 -334.991608 L -64.653999 -335.047028 L -64.287003 -335.286438 L -63.840000 -335.578003 L -62.500000 -335.838989 L -61.160999 -335.578003 L -60.346001 -335.046387 L -60.025002 -334.837006 L -59.265999 -333.727997 L -59.000000 -332.419006 L -59.265999 -331.110992 L -59.810291 -330.315002 L -59.867046 -330.231995 L -60.025002 -330.001007 L -61.160999 -329.260010 L -62.500000 -329.000000 L -63.840000 -329.260010 L -64.653999 -329.790955 L -64.738998 -329.846405 z M -138.160004 -350.356995 L -139.500000 -350.097992 L -140.839005 -350.356995 L -141.654007 -350.886475 L -141.738998 -350.941681 L -141.975006 -351.095001 L -142.733994 -352.197998 L -143.000000 -353.500000 L -142.733994 -354.802002 L -141.975006 -355.904999 L -141.738998 -356.058319 L -141.654007 -356.113525 L -141.287003 -356.351959 L -140.839005 -356.643005 L -139.500000 -356.902008 L -138.160004 -356.643005 L -137.345993 -356.113708 L -137.024994 -355.904999 L -136.266006 -354.802002 L -135.998993 -353.500000 L -136.266006 -352.197998 L -136.810303 -351.407013 L -136.867416 -351.324005 L -137.024994 -351.095001 L -137.630997 -350.700958 z M 137.932419 34.007122 L 137.936630 34.008869 L 138.105103 34.078648 L 138.105728 34.078911 L 138.110046 34.080696 L 142.293152 35.813408 L 143.318054 36.237938 L 150.524200 39.222836 L 150.524323 39.222885 L 153.472641 40.444126 L 153.485260 40.449348 L 158.359467 42.468323 L 157.594467 44.316322 L 152.719528 42.297047 L 152.707443 42.292042 L 149.759125 41.070801 L 149.758469 41.070534 L 142.552200 38.085583 L 141.527710 37.661221 L 137.344193 35.928341 L 137.340729 35.926910 L 137.340103 35.926647 L 137.171814 35.856937 L 137.167480 35.855145 L 137.166687 35.854820 L 137.166367 35.854687 L 136.319733 35.503994 L 135.020782 34.965950 L 135.019867 34.965572 L 135.784866 33.117573 L 135.785782 33.117950 L 137.085449 33.656296 L 137.931198 34.006615 z M 67.918564 -350.097992 L 67.852943 -349.778015 L 67.734001 -349.197998 L 67.189697 -348.407013 L 67.000000 -348.131317 L 66.974998 -348.095001 L 66.369003 -347.700958 L 65.839996 -347.356995 L 64.500000 -347.097992 L 63.160999 -347.356995 L 62.346001 -347.886475 L 62.025002 -348.095001 L 62.000000 -348.131317 L 61.385735 -349.023987 L 61.265999 -349.197998 L 61.082130 -350.097992 L 61.000000 -350.500000 L 61.265999 -351.802002 L 62.000000 -352.868683 L 62.025002 -352.904999 L 62.346001 -353.113525 L 62.713001 -353.351959 L 63.160999 -353.643005 L 64.500000 -353.902008 L 65.839996 -353.643005 L 66.653999 -353.113708 L 66.974998 -352.904999 L 67.734001 -351.802002 L 67.852943 -351.221985 L 68.000999 -350.500000 z M -121.471077 118.622070 L -122.387604 119.538544 L -122.387573 119.538574 L -120.974548 120.951607 L -120.973602 120.952545 L -119.973557 119.952545 L -119.974548 119.951553 L -121.387550 118.538551 z M 146.030380 36.146790 L 146.115189 35.942001 L 146.366333 35.335484 L 147.830200 35.942001 L 147.979996 36.004066 L 149.034561 36.441002 L 149.893005 36.796673 L 150.081589 36.874809 L 151.289490 37.375034 L 151.289413 37.375244 L 151.098007 37.837486 L 150.692352 38.817116 L 150.566330 39.121208 L 149.893005 38.842369 L 147.979996 38.050148 L 147.415649 37.816441 L 145.643341 37.082016 z M -137.634003 -352.453003 L -137.345993 -353.500000 L -137.634003 -354.546997 L -138.423004 -355.312988 L -139.500000 -355.592987 L -140.576996 -355.312988 L -141.365005 -354.546997 L -141.654007 -353.500000 L -141.365005 -352.453003 L -140.576996 -351.687012 L -139.500000 -351.407013 L -138.423004 -351.687012 z M 133.132080 46.089779 L 132.092468 45.659237 L 133.132034 46.089874 z M 172.708771 -63.033939 L 173.906219 -63.529930 L 174.671219 -61.681931 L 173.364655 -61.140736 L 172.599655 -62.988735 z M 161.493240 55.673073 L 156.851776 53.750347 L 159.666214 54.916248 z M 65.577003 -352.312988 L 64.500000 -352.592987 L 63.423000 -352.312988 L 62.713001 -351.622833 L 62.634998 -351.546997 L 62.545292 -351.221985 L 62.346001 -350.500000 L 62.456963 -350.097992 L 62.545292 -349.778015 L 62.634998 -349.453003 L 63.423000 -348.687012 L 64.500000 -348.407013 L 65.577003 -348.687012 L 66.365997 -349.453003 L 66.369003 -349.463898 L 66.455399 -349.778015 L 66.543419 -350.097992 L 66.653999 -350.500000 L 66.455399 -351.221985 L 66.365997 -351.546997 z M -62.500000 -330.315002 L -61.423000 -330.596985 L -60.634998 -331.367004 L -60.346001 -332.419006 L -60.634998 -333.471008 L -61.423000 -334.242004 L -62.500000 -334.523010 L -63.577000 -334.242004 L -64.365997 -333.471008 L -64.653999 -332.419006 L -64.365997 -331.367004 L -63.577000 -330.596985 z M -119.981201 -119.440895 L -121.387550 -118.034546 L -121.471077 -118.118065 L -122.387604 -119.034546 L -122.387573 -119.034576 L -121.057579 -120.364571 L -120.973602 -120.448608 L -120.973572 -120.448578 L -119.973549 -119.448555 z M 316.968994 -267.664886 L 316.968994 -269.079163 L 318.970001 -269.079163 L 318.970001 -267.664886 z" fill="none" stroke="rgb(0,0,255)" stroke-width="0.01mm" />
</svg>
