<?xml version='1.0' encoding='UTF-8' standalone='no'?>
<!-- Created with Fritzing (http://www.fritzing.org/) -->
<svg xmlns="http://www.w3.org/2000/svg" x="0in" height="0.283591in" viewBox="0 0 7.2032 7.2032" baseProfile="tiny"  width="0.283591in" version="1.2" y="0in">
    <desc >
        <referenceFile >sparkfun-connectors_screwterminal-3.5mm-2_lock_pcb.svg</referenceFile>
    </desc>
    <g gorn="0.1"  id="copper1">
        <circle stroke="#F7BD13" stroke-width="0.416" gorn="0.1.0" connectorname="1" r="0.808" cx="1.6738"  cy="3.5016" fill="none" id="connector0pad"/>
        <path stroke="none" stroke-width="0" d="m0.6578,2.4856 2.032,0 0,2.032 -2.032,0 0,-2.032zM1.0738,3.5016a0.6,0.6 0 1 0 1.2,0 0.6,0.6 0 1 0 -1.2,0z&#xa;"  fill="#F7BD13"/>
        <circle stroke="#F7BD13" stroke-width="0.416" gorn="0.1.2" connectorname="2" r="0.808" cx="5.5294"  cy="3.5016" fill="none" id="connector1pad"/>
        <g gorn="0.1.3"  id="copper0">
            <circle stroke="#F7BD13" stroke-width="0.416" gorn="0.1.3.0" connectorname="1" r="0.808" cx="1.6738"  cy="3.5016" fill="none" id="connector0pad"/>
            <path stroke="none" stroke-width="0" d="m0.6578,2.4856 2.032,0 0,2.032 -2.032,0 0,-2.032zM1.0738,3.5016a0.6,0.6 0 1 0 1.2,0 0.6,0.6 0 1 0 -1.2,0z&#xa;"  fill="#F7BD13"/>
            <circle stroke="#F7BD13" stroke-width="0.416" gorn="0.1.3.2" connectorname="2" r="0.808" cx="5.5294"  cy="3.5016" fill="none" id="connector1pad"/>
        </g>
    </g>
    <g gorn="0.2"  id="silkscreen">
        <line stroke="#f0f0f0" stroke-width="0.2032" y2="0.1016" x1="0.1016" y1="0.1016" class="other" stroke-linecap="round" x2="7.1016" />
        <line stroke="#f0f0f0" stroke-width="0.2032" y2="6.3016" x1="7.1016" y1="0.1016" class="other" stroke-linecap="round" x2="7.1016" />
        <line stroke="#f0f0f0" stroke-width="0.2032" y2="7.1016" x1="7.1016" y1="6.3016" class="other" stroke-linecap="round" x2="7.1016" />
        <line stroke="#f0f0f0" stroke-width="0.2032" y2="7.1016" x1="7.1016" y1="7.1016" class="other" stroke-linecap="round" x2="0.1016" />
        <line stroke="#f0f0f0" stroke-width="0.2032" y2="6.3016" x1="0.1016" y1="7.1016" class="other" stroke-linecap="round" x2="0.1016" />
        <line stroke="#f0f0f0" stroke-width="0.2032" y2="0.1016" x1="0.1016" y1="6.3016" class="other" stroke-linecap="round" x2="0.1016" />
        <line stroke="#f0f0f0" stroke-width="0.2032" y2="6.3016" x1="7.1016" y1="6.3016" class="other" stroke-linecap="round" x2="0.1016" />
    </g>
</svg>
