<?xml version='1.0' encoding='UTF-8' standalone='no'?>
<!-- Created with Fritzing (http://www.fritzing.org/) -->
<svg xmlns="http://www.w3.org/2000/svg" y="0in" viewBox="0 0 7.2032 7.2032" x="0in"  baseProfile="tiny" version="1.2" height="0.283591in" width="0.283591in">
    <desc>
        <referenceFile>sparkfun-connectors_screwterminal-3.5mm-2_lock_pcb.svg</referenceFile>
    </desc>
    <g id="copper1" gorn="0.0" >
        <circle id="connector0pad" cx="1.6738" stroke-width="0.416" gorn="0.0.0"  r="0.808" connectorname="1" fill="none" stroke="#F7BD13" cy="3.5016"/>
        <path stroke-width="0"  d="m0.6578,2.4856 2.032,0 0,2.032 -2.032,0 0,-2.032zM1.0738,3.5016a0.6,0.6 0 1 0 1.2,0 0.6,0.6 0 1 0 -1.2,0z&#xa;" fill="#F7BD13" stroke="none"/>
        <circle id="connector1pad" cx="5.5294" stroke-width="0.416" gorn="0.0.2"  r="0.808" connectorname="2" fill="none" stroke="#F7BD13" cy="3.5016"/>
        <g id="copper0" gorn="0.0.3" >
            <circle id="connector0pad" cx="1.6738" stroke-width="0.416" gorn="0.0.3.0"  r="0.808" connectorname="1" fill="none" stroke="#F7BD13" cy="3.5016"/>
            <path stroke-width="0"  d="m0.6578,2.4856 2.032,0 0,2.032 -2.032,0 0,-2.032zM1.0738,3.5016a0.6,0.6 0 1 0 1.2,0 0.6,0.6 0 1 0 -1.2,0z&#xa;" fill="#F7BD13" stroke="none"/>
            <circle id="connector1pad" cx="5.5294" stroke-width="0.416" gorn="0.0.3.2"  r="0.808" connectorname="2" fill="none" stroke="#F7BD13" cy="3.5016"/>
        </g>
    </g>
    <g id="silkscreen" gorn="0.1" >
        <line stroke-linecap="round" stroke-width="0.2032"  x1="0.1016" y2="0.1016" class="other" x2="7.1016" stroke="#f0f0f0" y1="0.1016"/>
        <line stroke-linecap="round" stroke-width="0.2032"  x1="7.1016" y2="6.3016" class="other" x2="7.1016" stroke="#f0f0f0" y1="0.1016"/>
        <line stroke-linecap="round" stroke-width="0.2032"  x1="7.1016" y2="7.1016" class="other" x2="7.1016" stroke="#f0f0f0" y1="6.3016"/>
        <line stroke-linecap="round" stroke-width="0.2032"  x1="7.1016" y2="7.1016" class="other" x2="0.1016" stroke="#f0f0f0" y1="7.1016"/>
        <line stroke-linecap="round" stroke-width="0.2032"  x1="0.1016" y2="6.3016" class="other" x2="0.1016" stroke="#f0f0f0" y1="7.1016"/>
        <line stroke-linecap="round" stroke-width="0.2032"  x1="0.1016" y2="0.1016" class="other" x2="0.1016" stroke="#f0f0f0" y1="6.3016"/>
        <line stroke-linecap="round" stroke-width="0.2032"  x1="7.1016" y2="6.3016" class="other" x2="0.1016" stroke="#f0f0f0" y1="6.3016"/>
    </g>
</svg>
