<?xml version='1.0' encoding='UTF-8' standalone='no'?>
<!-- Created with Fritzing (http://www.fritzing.org/) -->
<svg xmlns="http://www.w3.org/2000/svg" baseProfile="tiny" version="1.2" height="0.283591in" width="0.283591in"  y="0in" viewBox="0 0 7.2032 7.2032" x="0in">
    <desc >
        <referenceFile >sparkfun-connectors_screwterminal-3.5mm-2_lock_pcb.svg</referenceFile>
    </desc>
    <g gorn="0.1" id="copper1" >
        <circle r="0.808" gorn="0.1.0" id="connector0pad" fill="none" stroke="#F7BD13"  cx="1.6738" stroke-width="0.416" connectorname="1" cy="3.5016"/>
        <path fill="#F7BD13" stroke="none"  stroke-width="0" d="m0.6578,2.4856 2.032,0 0,2.032 -2.032,0 0,-2.032zM1.0738,3.5016a0.6,0.6 0 1 0 1.2,0 0.6,0.6 0 1 0 -1.2,0z&#xa;"/>
        <circle r="0.808" gorn="0.1.2" id="connector1pad" fill="none" stroke="#F7BD13"  cx="5.5294" stroke-width="0.416" connectorname="2" cy="3.5016"/>
        <g gorn="0.1.3" id="copper0" >
            <circle r="0.808" gorn="0.1.3.0" id="connector0pad" fill="none" stroke="#F7BD13"  cx="1.6738" stroke-width="0.416" connectorname="1" cy="3.5016"/>
            <path fill="#F7BD13" stroke="none"  stroke-width="0" d="m0.6578,2.4856 2.032,0 0,2.032 -2.032,0 0,-2.032zM1.0738,3.5016a0.6,0.6 0 1 0 1.2,0 0.6,0.6 0 1 0 -1.2,0z&#xa;"/>
            <circle r="0.808" gorn="0.1.3.2" id="connector1pad" fill="none" stroke="#F7BD13"  cx="5.5294" stroke-width="0.416" connectorname="2" cy="3.5016"/>
        </g>
    </g>
    <g gorn="0.2" id="silkscreen" >
        <line class="other" stroke="#f0f0f0"  stroke-width="0.2032" x1="0.1016" stroke-linecap="round" y2="0.1016" x2="7.1016" y1="0.1016"/>
        <line class="other" stroke="#f0f0f0"  stroke-width="0.2032" x1="7.1016" stroke-linecap="round" y2="6.3016" x2="7.1016" y1="0.1016"/>
        <line class="other" stroke="#f0f0f0"  stroke-width="0.2032" x1="7.1016" stroke-linecap="round" y2="7.1016" x2="7.1016" y1="6.3016"/>
        <line class="other" stroke="#f0f0f0"  stroke-width="0.2032" x1="7.1016" stroke-linecap="round" y2="7.1016" x2="0.1016" y1="7.1016"/>
        <line class="other" stroke="#f0f0f0"  stroke-width="0.2032" x1="0.1016" stroke-linecap="round" y2="6.3016" x2="0.1016" y1="7.1016"/>
        <line class="other" stroke="#f0f0f0"  stroke-width="0.2032" x1="0.1016" stroke-linecap="round" y2="0.1016" x2="0.1016" y1="6.3016"/>
        <line class="other" stroke="#f0f0f0"  stroke-width="0.2032" x1="7.1016" stroke-linecap="round" y2="6.3016" x2="0.1016" y1="6.3016"/>
    </g>
</svg>
