<?xml version='1.0' encoding='UTF-8' standalone='no'?>
<!-- Created with Fritzing (http://www.fritzing.org/) -->
<svg xmlns="http://www.w3.org/2000/svg" height="2.1in" version="1.2" baseProfile="tiny" x="0in"  viewBox="0 0 228.96 151.2" width="3.18in" y="0in">
    <desc>
        <referenceFile>Adafruit RGB LCD Shield_pcb.svg</referenceFile>
    </desc>
    <desc >Fritzing footprint generated by brd2svg</desc>
    <g  id="silkscreen" gorn="0.1">
        <path fill="none" d="M0.288,150.912L0.288,0.288L228.672,0.288L228.672,150.912L0.288,150.912M4.50028,102.977a3.6805,3.6805,0,1,0,7.36099,0,3.6805,3.6805,0,1,0,-7.36099,0zM4.50028,15.103a3.6805,3.6805,0,1,0,7.36099,0,3.6805,3.6805,0,1,0,-7.36099,0zM217.099,15.103a3.6805,3.6805,0,1,0,7.36099,0,3.6805,3.6805,0,1,0,-7.36099,0zM217.099,102.977a3.6805,3.6805,0,1,0,7.36099,0,3.6805,3.6805,0,1,0,-7.36099,0z" stroke-width="0.576"  stroke="white"/>
        <g >
            <title >element:DOWN</title>
            <g >
                <title >package:B3F-10XX</title>
                <line stroke-width="0.432" stroke-linecap="round"  x2="41.04" x1="41.76" stroke="white" y1="143.28" y2="143.28"/>
                <line stroke-width="0.432" stroke-linecap="round"  x2="41.76" x1="41.76" stroke="white" y1="143.28" y2="138.96"/>
                <line stroke-width="0.432" stroke-linecap="round"  x2="41.76" x1="41.04" stroke="white" y1="138.96" y2="138.96"/>
                <line stroke-width="0.432" stroke-linecap="round"  x2="23.76" x1="23.04" stroke="white" y1="138.96" y2="138.96"/>
                <line stroke-width="0.432" stroke-linecap="round"  x2="23.04" x1="23.04" stroke="white" y1="138.96" y2="143.28"/>
                <line stroke-width="0.432" stroke-linecap="round"  x2="23.04" x1="23.76" stroke="white" y1="143.28" y2="143.28"/>
                <line stroke-width="0.144" stroke-linecap="round"  x2="28.8" x1="28.8" stroke="white" y1="132.48" y2="133.2"/>
                <line stroke-width="0.144" stroke-linecap="round"  x2="28.8" x1="36" stroke="white" y1="133.2" y2="133.2"/>
                <line stroke-width="0.144" stroke-linecap="round"  x2="36" x1="36" stroke="white" y1="133.2" y2="132.48"/>
                <line stroke-width="0.144" stroke-linecap="round"  x2="28.8" x1="35.64" stroke="white" y1="149.04" y2="149.04"/>
                <line stroke-width="0.144" stroke-linecap="round"  x2="35.64" x1="35.64" stroke="white" y1="149.04" y2="149.76"/>
                <line stroke-width="0.144" stroke-linecap="round"  x2="28.8" x1="28.8" stroke="white" y1="149.04" y2="149.76"/>
                <line stroke-width="0.432" stroke-linecap="round"  x2="28.8" x1="26.28" stroke="white" y1="149.76" y2="149.76"/>
                <line stroke-width="0.432" stroke-linecap="round"  x2="36" x1="38.52" stroke="white" y1="132.48" y2="132.48"/>
                <line stroke-width="0.432" stroke-linecap="round"  x2="28.8" x1="36" stroke="white" y1="132.48" y2="132.48"/>
                <line stroke-width="0.432" stroke-linecap="round"  x2="26.28" x1="28.8" stroke="white" y1="132.48" y2="132.48"/>
                <line stroke-width="0.432" stroke-linecap="round"  x2="35.64" x1="28.8" stroke="white" y1="149.76" y2="149.76"/>
                <line stroke-width="0.432" stroke-linecap="round"  x2="38.52" x1="35.64" stroke="white" y1="149.76" y2="149.76"/>
                <line stroke-width="0.432" stroke-linecap="round"  x2="41.04" x1="41.04" stroke="white" y1="143.28" y2="144"/>
                <line stroke-width="0.432" stroke-linecap="round"  x2="41.04" x1="41.04" stroke="white" y1="138.96" y2="138.24"/>
                <line stroke-width="0.432" stroke-linecap="round"  x2="23.76" x1="23.76" stroke="white" y1="143.28" y2="144"/>
                <line stroke-width="0.432" stroke-linecap="round"  x2="23.76" x1="23.76" stroke="white" y1="138.96" y2="138.24"/>
                <circle cy="141.12" fill="none" stroke-width="0.432"  cx="32.4" r="5.04" stroke="white"/>
                <circle cy="141.12" fill="none" stroke-width="0.432"  cx="32.4" r="0.72" stroke="white"/>
            </g>
        </g>
        <g >
            <title >element:IC1</title>
            <g >
                <title >package:DIL28-3-ROUND</title>
                <line stroke-width="0.432" stroke-linecap="round"  x2="200.16" x1="200.16" stroke="white" y1="124.2" y2="118.08"/>
                <path fill="none" d="M200.16,124.2A1.8,1.8,0,1,0,200.16,127.8" stroke-width="0.432"  stroke="white"/>
                <line stroke-width="0.432" stroke-linecap="round"  x2="95.04" x1="200.16" stroke="white" y1="118.08" y2="118.08"/>
                <line stroke-width="0.432" stroke-linecap="round"  x2="200.16" x1="200.16" stroke="white" y1="133.92" y2="127.8"/>
                <line stroke-width="0.432" stroke-linecap="round"  x2="95.04" x1="200.16" stroke="white" y1="133.92" y2="133.92"/>
                <line stroke-width="0.432" stroke-linecap="round"  x2="95.04" x1="95.04" stroke="white" y1="133.92" y2="118.08"/>
            </g>
        </g>
        <g >
            <title >element:LEFT</title>
            <g >
                <title >package:B3F-10XX</title>
                <line stroke-width="0.432" stroke-linecap="round"  x2="8.64" x1="8.64" stroke="white" y1="140.76" y2="140.04"/>
                <line stroke-width="0.432" stroke-linecap="round"  x2="12.96" x1="8.64" stroke="white" y1="140.76" y2="140.76"/>
                <line stroke-width="0.432" stroke-linecap="round"  x2="12.96" x1="12.96" stroke="white" y1="140.04" y2="140.76"/>
                <line stroke-width="0.432" stroke-linecap="round"  x2="12.96" x1="12.96" stroke="white" y1="122.04" y2="122.76"/>
                <line stroke-width="0.432" stroke-linecap="round"  x2="8.64" x1="12.96" stroke="white" y1="122.04" y2="122.04"/>
                <line stroke-width="0.432" stroke-linecap="round"  x2="8.64" x1="8.64" stroke="white" y1="122.76" y2="122.04"/>
                <line stroke-width="0.144" stroke-linecap="round"  x2="18.72" x1="19.44" stroke="white" y1="127.8" y2="127.8"/>
                <line stroke-width="0.144" stroke-linecap="round"  x2="18.72" x1="18.72" stroke="white" y1="135" y2="127.8"/>
                <line stroke-width="0.144" stroke-linecap="round"  x2="19.44" x1="18.72" stroke="white" y1="135" y2="135"/>
                <line stroke-width="0.144" stroke-linecap="round"  x2="2.88" x1="2.88" stroke="white" y1="134.64" y2="127.8"/>
                <line stroke-width="0.144" stroke-linecap="round"  x2="2.16" x1="2.88" stroke="white" y1="134.64" y2="134.64"/>
                <line stroke-width="0.144" stroke-linecap="round"  x2="2.16" x1="2.88" stroke="white" y1="127.8" y2="127.8"/>
                <line stroke-width="0.432" stroke-linecap="round"  x2="2.16" x1="2.16" stroke="white" y1="125.28" y2="127.8"/>
                <line stroke-width="0.432" stroke-linecap="round"  x2="19.44" x1="19.44" stroke="white" y1="137.52" y2="135"/>
                <line stroke-width="0.432" stroke-linecap="round"  x2="19.44" x1="19.44" stroke="white" y1="135" y2="127.8"/>
                <line stroke-width="0.432" stroke-linecap="round"  x2="19.44" x1="19.44" stroke="white" y1="127.8" y2="125.28"/>
                <line stroke-width="0.432" stroke-linecap="round"  x2="2.16" x1="2.16" stroke="white" y1="127.8" y2="134.64"/>
                <line stroke-width="0.432" stroke-linecap="round"  x2="2.16" x1="2.16" stroke="white" y1="134.64" y2="137.52"/>
                <line stroke-width="0.432" stroke-linecap="round"  x2="7.92" x1="8.64" stroke="white" y1="140.04" y2="140.04"/>
                <line stroke-width="0.432" stroke-linecap="round"  x2="13.68" x1="12.96" stroke="white" y1="140.04" y2="140.04"/>
                <line stroke-width="0.432" stroke-linecap="round"  x2="7.92" x1="8.64" stroke="white" y1="122.76" y2="122.76"/>
                <line stroke-width="0.432" stroke-linecap="round"  x2="13.68" x1="12.96" stroke="white" y1="122.76" y2="122.76"/>
                <circle cy="131.4" fill="none" stroke-width="0.432"  cx="10.8" r="5.04" stroke="white"/>
                <circle cy="131.4" fill="none" stroke-width="0.432"  cx="10.8" r="0.72" stroke="white"/>
            </g>
        </g>
        <g >
            <title >element:RESET</title>
            <g >
                <title >package:B3F-10XX</title>
                <line stroke-width="0.432" stroke-linecap="round"  x2="222.48" x1="223.2" stroke="white" y1="144" y2="144"/>
                <line stroke-width="0.432" stroke-linecap="round"  x2="223.2" x1="223.2" stroke="white" y1="144" y2="139.68"/>
                <line stroke-width="0.432" stroke-linecap="round"  x2="223.2" x1="222.48" stroke="white" y1="139.68" y2="139.68"/>
                <line stroke-width="0.432" stroke-linecap="round"  x2="205.2" x1="204.48" stroke="white" y1="139.68" y2="139.68"/>
                <line stroke-width="0.432" stroke-linecap="round"  x2="204.48" x1="204.48" stroke="white" y1="139.68" y2="144"/>
                <line stroke-width="0.432" stroke-linecap="round"  x2="204.48" x1="205.2" stroke="white" y1="144" y2="144"/>
                <line stroke-width="0.144" stroke-linecap="round"  x2="210.24" x1="210.24" stroke="white" y1="133.2" y2="133.92"/>
                <line stroke-width="0.144" stroke-linecap="round"  x2="210.24" x1="217.44" stroke="white" y1="133.92" y2="133.92"/>
                <line stroke-width="0.144" stroke-linecap="round"  x2="217.44" x1="217.44" stroke="white" y1="133.92" y2="133.2"/>
                <line stroke-width="0.144" stroke-linecap="round"  x2="210.24" x1="217.08" stroke="white" y1="149.76" y2="149.76"/>
                <line stroke-width="0.144" stroke-linecap="round"  x2="217.08" x1="217.08" stroke="white" y1="149.76" y2="150.48"/>
                <line stroke-width="0.144" stroke-linecap="round"  x2="210.24" x1="210.24" stroke="white" y1="149.76" y2="150.48"/>
                <line stroke-width="0.432" stroke-linecap="round"  x2="210.24" x1="207.72" stroke="white" y1="150.48" y2="150.48"/>
                <line stroke-width="0.432" stroke-linecap="round"  x2="217.44" x1="219.96" stroke="white" y1="133.2" y2="133.2"/>
                <line stroke-width="0.432" stroke-linecap="round"  x2="210.24" x1="217.44" stroke="white" y1="133.2" y2="133.2"/>
                <line stroke-width="0.432" stroke-linecap="round"  x2="207.72" x1="210.24" stroke="white" y1="133.2" y2="133.2"/>
                <line stroke-width="0.432" stroke-linecap="round"  x2="217.08" x1="210.24" stroke="white" y1="150.48" y2="150.48"/>
                <line stroke-width="0.432" stroke-linecap="round"  x2="219.96" x1="217.08" stroke="white" y1="150.48" y2="150.48"/>
                <line stroke-width="0.432" stroke-linecap="round"  x2="222.48" x1="222.48" stroke="white" y1="144" y2="144.72"/>
                <line stroke-width="0.432" stroke-linecap="round"  x2="222.48" x1="222.48" stroke="white" y1="139.68" y2="138.96"/>
                <line stroke-width="0.432" stroke-linecap="round"  x2="205.2" x1="205.2" stroke="white" y1="144" y2="144.72"/>
                <line stroke-width="0.432" stroke-linecap="round"  x2="205.2" x1="205.2" stroke="white" y1="139.68" y2="138.96"/>
                <circle cy="141.84" fill="none" stroke-width="0.432"  cx="213.84" r="5.04" stroke="white"/>
                <circle cy="141.84" fill="none" stroke-width="0.432"  cx="213.84" r="0.72" stroke="white"/>
            </g>
        </g>
        <g >
            <title >element:RIGHT</title>
            <g >
                <title >package:B3F-10XX</title>
                <line stroke-width="0.432" stroke-linecap="round"  x2="56.16" x1="56.16" stroke="white" y1="122.04" y2="122.76"/>
                <line stroke-width="0.432" stroke-linecap="round"  x2="51.84" x1="56.16" stroke="white" y1="122.04" y2="122.04"/>
                <line stroke-width="0.432" stroke-linecap="round"  x2="51.84" x1="51.84" stroke="white" y1="122.76" y2="122.04"/>
                <line stroke-width="0.432" stroke-linecap="round"  x2="51.84" x1="51.84" stroke="white" y1="140.76" y2="140.04"/>
                <line stroke-width="0.432" stroke-linecap="round"  x2="56.16" x1="51.84" stroke="white" y1="140.76" y2="140.76"/>
                <line stroke-width="0.432" stroke-linecap="round"  x2="56.16" x1="56.16" stroke="white" y1="140.04" y2="140.76"/>
                <line stroke-width="0.144" stroke-linecap="round"  x2="46.08" x1="45.36" stroke="white" y1="135" y2="135"/>
                <line stroke-width="0.144" stroke-linecap="round"  x2="46.08" x1="46.08" stroke="white" y1="127.8" y2="135"/>
                <line stroke-width="0.144" stroke-linecap="round"  x2="45.36" x1="46.08" stroke="white" y1="127.8" y2="127.8"/>
                <line stroke-width="0.144" stroke-linecap="round"  x2="61.92" x1="61.92" stroke="white" y1="128.16" y2="135"/>
                <line stroke-width="0.144" stroke-linecap="round"  x2="62.64" x1="61.92" stroke="white" y1="128.16" y2="128.16"/>
                <line stroke-width="0.144" stroke-linecap="round"  x2="62.64" x1="61.92" stroke="white" y1="135" y2="135"/>
                <line stroke-width="0.432" stroke-linecap="round"  x2="62.64" x1="62.64" stroke="white" y1="137.52" y2="135"/>
                <line stroke-width="0.432" stroke-linecap="round"  x2="45.36" x1="45.36" stroke="white" y1="125.28" y2="127.8"/>
                <line stroke-width="0.432" stroke-linecap="round"  x2="45.36" x1="45.36" stroke="white" y1="127.8" y2="135"/>
                <line stroke-width="0.432" stroke-linecap="round"  x2="45.36" x1="45.36" stroke="white" y1="135" y2="137.52"/>
                <line stroke-width="0.432" stroke-linecap="round"  x2="62.64" x1="62.64" stroke="white" y1="135" y2="128.16"/>
                <line stroke-width="0.432" stroke-linecap="round"  x2="62.64" x1="62.64" stroke="white" y1="128.16" y2="125.28"/>
                <line stroke-width="0.432" stroke-linecap="round"  x2="56.88" x1="56.16" stroke="white" y1="122.76" y2="122.76"/>
                <line stroke-width="0.432" stroke-linecap="round"  x2="51.12" x1="51.84" stroke="white" y1="122.76" y2="122.76"/>
                <line stroke-width="0.432" stroke-linecap="round"  x2="56.88" x1="56.16" stroke="white" y1="140.04" y2="140.04"/>
                <line stroke-width="0.432" stroke-linecap="round"  x2="51.12" x1="51.84" stroke="white" y1="140.04" y2="140.04"/>
                <circle cy="131.4" fill="none" stroke-width="0.432"  cx="54" r="5.04" stroke="white"/>
                <circle cy="131.4" fill="none" stroke-width="0.432"  cx="54" r="0.72" stroke="white"/>
            </g>
        </g>
        <g >
            <title >element:SELECT</title>
            <g >
                <title >package:B3F-10XX</title>
                <line stroke-width="0.432" stroke-linecap="round"  x2="87.84" x1="88.56" stroke="white" y1="124.56" y2="124.56"/>
                <line stroke-width="0.432" stroke-linecap="round"  x2="88.56" x1="88.56" stroke="white" y1="124.56" y2="120.24"/>
                <line stroke-width="0.432" stroke-linecap="round"  x2="88.56" x1="87.84" stroke="white" y1="120.24" y2="120.24"/>
                <line stroke-width="0.432" stroke-linecap="round"  x2="70.56" x1="69.84" stroke="white" y1="120.24" y2="120.24"/>
                <line stroke-width="0.432" stroke-linecap="round"  x2="69.84" x1="69.84" stroke="white" y1="120.24" y2="124.56"/>
                <line stroke-width="0.432" stroke-linecap="round"  x2="69.84" x1="70.56" stroke="white" y1="124.56" y2="124.56"/>
                <line stroke-width="0.144" stroke-linecap="round"  x2="75.6" x1="75.6" stroke="white" y1="113.76" y2="114.48"/>
                <line stroke-width="0.144" stroke-linecap="round"  x2="75.6" x1="82.8" stroke="white" y1="114.48" y2="114.48"/>
                <line stroke-width="0.144" stroke-linecap="round"  x2="82.8" x1="82.8" stroke="white" y1="114.48" y2="113.76"/>
                <line stroke-width="0.144" stroke-linecap="round"  x2="75.6" x1="82.44" stroke="white" y1="130.32" y2="130.32"/>
                <line stroke-width="0.144" stroke-linecap="round"  x2="82.44" x1="82.44" stroke="white" y1="130.32" y2="131.04"/>
                <line stroke-width="0.144" stroke-linecap="round"  x2="75.6" x1="75.6" stroke="white" y1="130.32" y2="131.04"/>
                <line stroke-width="0.432" stroke-linecap="round"  x2="75.6" x1="73.08" stroke="white" y1="131.04" y2="131.04"/>
                <line stroke-width="0.432" stroke-linecap="round"  x2="82.8" x1="85.32" stroke="white" y1="113.76" y2="113.76"/>
                <line stroke-width="0.432" stroke-linecap="round"  x2="75.6" x1="82.8" stroke="white" y1="113.76" y2="113.76"/>
                <line stroke-width="0.432" stroke-linecap="round"  x2="73.08" x1="75.6" stroke="white" y1="113.76" y2="113.76"/>
                <line stroke-width="0.432" stroke-linecap="round"  x2="82.44" x1="75.6" stroke="white" y1="131.04" y2="131.04"/>
                <line stroke-width="0.432" stroke-linecap="round"  x2="85.32" x1="82.44" stroke="white" y1="131.04" y2="131.04"/>
                <line stroke-width="0.432" stroke-linecap="round"  x2="87.84" x1="87.84" stroke="white" y1="124.56" y2="125.28"/>
                <line stroke-width="0.432" stroke-linecap="round"  x2="87.84" x1="87.84" stroke="white" y1="120.24" y2="119.52"/>
                <line stroke-width="0.432" stroke-linecap="round"  x2="70.56" x1="70.56" stroke="white" y1="124.56" y2="125.28"/>
                <line stroke-width="0.432" stroke-linecap="round"  x2="70.56" x1="70.56" stroke="white" y1="120.24" y2="119.52"/>
                <circle cy="122.4" fill="none" stroke-width="0.432"  cx="79.2" r="5.04" stroke="white"/>
                <circle cy="122.4" fill="none" stroke-width="0.432"  cx="79.2" r="0.72" stroke="white"/>
            </g>
        </g>
        <g >
            <title >element:TM1</title>
            <g >
                <title >package:6MM</title>
                <line stroke-width="1.728" stroke-linecap="round"  x2="215.64" x1="212.04" stroke="white" y1="123.48" y2="119.88"/>
                <line stroke-width="0.432" stroke-linecap="round"  x2="217.8" x1="217.44" stroke="white" y1="118.08" y2="117.72"/>
                <line stroke-width="0.432" stroke-linecap="round"  x2="209.88" x1="210.24" stroke="white" y1="118.08" y2="117.72"/>
                <line stroke-width="0.432" stroke-linecap="round"  x2="209.88" x1="210.24" stroke="white" y1="125.28" y2="125.64"/>
                <line stroke-width="0.432" stroke-linecap="round"  x2="217.8" x1="217.44" stroke="white" y1="125.28" y2="125.64"/>
                <path fill="none" d="M204.661,123.516A9.35971,9.35971,0,0,0,213.84,131.04" stroke-width="0.432"  stroke="white"/>
                <path fill="none" d="M213.84,131.04A9.36,9.36,0,0,0,223.032,123.448" stroke-width="0.432"  stroke="white"/>
                <path fill="none" d="M211.32,112.68A9.34618,9.34618,0,0,0,204.69,119.773" stroke-width="0.432"  stroke="white"/>
                <path fill="none" d="M222.99,119.773A9.34618,9.34618,0,0,0,216.36,112.68" stroke-width="0.432"  stroke="white"/>
                <circle cy="121.68" fill="none" stroke-width="0.432"  cx="213.84" r="3.96" stroke="white"/>
            </g>
        </g>
        <g >
            <title >element:U$1</title>
            <g >
                <title >package:LCD1602-RGB</title>
                <line stroke-width="0.36" stroke-linecap="round"  x2="227.866" x1="1.09417" stroke="white" y1="110.064" y2="110.064"/>
                <line stroke-width="0.36" stroke-linecap="round"  x2="227.866" x1="227.866" stroke="white" y1="110.064" y2="8.01641"/>
                <line stroke-width="0.36" stroke-linecap="round"  x2="1.09417" x1="227.866" stroke="white" y1="8.01641" y2="8.01641"/>
                <line stroke-width="0.36" stroke-linecap="round"  x2="1.09417" x1="1.09417" stroke="white" y1="8.01641" y2="110.064"/>
                <line stroke-width="0.36" stroke-linecap="round"  x2="215.535" x1="13.4249" stroke="white" y1="21.7644" y2="21.7644"/>
                <line stroke-width="0.36" stroke-linecap="round"  x2="215.535" x1="215.535" stroke="white" y1="21.7644" y2="96.3158"/>
                <line stroke-width="0.36" stroke-linecap="round"  x2="13.4249" x1="215.535" stroke="white" y1="96.3158" y2="96.3158"/>
                <line stroke-width="0.36" stroke-linecap="round"  x2="13.4249" x1="13.4249" stroke="white" y1="96.3158" y2="21.7644"/>
                <line stroke-width="0.36" stroke-linecap="round"  x2="204.48" x1="24.48" stroke="white" y1="27.1899" y2="27.1899"/>
                <line stroke-width="0.36" stroke-linecap="round"  x2="204.48" x1="204.48" stroke="white" y1="27.1899" y2="30.0246"/>
                <line stroke-width="0.36" stroke-linecap="round"  x2="24.48" x1="204.48" stroke="white" y1="30.0246" y2="30.0246"/>
                <line stroke-width="0.36" stroke-linecap="round"  x2="24.48" x1="24.48" stroke="white" y1="30.0246" y2="27.1899"/>
                <line stroke-width="0.36" stroke-linecap="round"  x2="204.48" x1="24.48" stroke="white" y1="90.3629" y2="90.3629"/>
                <line stroke-width="0.36" stroke-linecap="round"  x2="204.48" x1="204.48" stroke="white" y1="90.3629" y2="87.5282"/>
                <line stroke-width="0.36" stroke-linecap="round"  x2="24.48" x1="204.48" stroke="white" y1="87.5282" y2="87.5282"/>
                <line stroke-width="0.36" stroke-linecap="round"  x2="24.48" x1="24.48" stroke="white" y1="87.5282" y2="90.3629"/>
                <path fill="none" d="M31.1811,36.4139A7.65576,7.65576,0,0,0,24.48,44.9178" stroke-width="0.36"  stroke="white"/>
                <line stroke-width="0.36" stroke-linecap="round"  x2="24.48" x1="24.48" stroke="white" y1="44.9178" y2="73.355"/>
                <path fill="none" d="M24.48,73.355A7.65576,7.65576,0,0,0,31.1811,81.859" stroke-width="0.36"  stroke="white"/>
                <line stroke-width="0.36" stroke-linecap="round"  x2="197.031" x1="31.1811" stroke="white" y1="81.859" y2="81.859"/>
                <path fill="none" d="M197.031,81.859A7.99409,7.99409,0,0,0,204.48,73.355" stroke-width="0.36"  stroke="white"/>
                <line stroke-width="0.36" stroke-linecap="round"  x2="204.48" x1="204.48" stroke="white" y1="73.355" y2="44.9178"/>
                <path fill="none" d="M204.48,44.9178A7.99409,7.99409,0,0,0,197.031,36.4139" stroke-width="0.36"  stroke="white"/>
                <line stroke-width="0.36" stroke-linecap="round"  x2="31.1811" x1="197.031" stroke="white" y1="36.4139" y2="36.4139"/>
            </g>
        </g>
        <g >
            <title >element:U1</title>
            <g >
                <title >package:ARDUINOR3-NOTEXT-NOIOREF</title>
            </g>
        </g>
        <g >
            <title >element:UP</title>
            <g >
                <title >package:B3F-10XX</title>
                <line stroke-width="0.432" stroke-linecap="round"  x2="41.04" x1="41.76" stroke="white" y1="124.56" y2="124.56"/>
                <line stroke-width="0.432" stroke-linecap="round"  x2="41.76" x1="41.76" stroke="white" y1="124.56" y2="120.24"/>
                <line stroke-width="0.432" stroke-linecap="round"  x2="41.76" x1="41.04" stroke="white" y1="120.24" y2="120.24"/>
                <line stroke-width="0.432" stroke-linecap="round"  x2="23.76" x1="23.04" stroke="white" y1="120.24" y2="120.24"/>
                <line stroke-width="0.432" stroke-linecap="round"  x2="23.04" x1="23.04" stroke="white" y1="120.24" y2="124.56"/>
                <line stroke-width="0.432" stroke-linecap="round"  x2="23.04" x1="23.76" stroke="white" y1="124.56" y2="124.56"/>
                <line stroke-width="0.144" stroke-linecap="round"  x2="28.8" x1="28.8" stroke="white" y1="113.76" y2="114.48"/>
                <line stroke-width="0.144" stroke-linecap="round"  x2="28.8" x1="36" stroke="white" y1="114.48" y2="114.48"/>
                <line stroke-width="0.144" stroke-linecap="round"  x2="36" x1="36" stroke="white" y1="114.48" y2="113.76"/>
                <line stroke-width="0.144" stroke-linecap="round"  x2="28.8" x1="35.64" stroke="white" y1="130.32" y2="130.32"/>
                <line stroke-width="0.144" stroke-linecap="round"  x2="35.64" x1="35.64" stroke="white" y1="130.32" y2="131.04"/>
                <line stroke-width="0.144" stroke-linecap="round"  x2="28.8" x1="28.8" stroke="white" y1="130.32" y2="131.04"/>
                <line stroke-width="0.432" stroke-linecap="round"  x2="28.8" x1="26.28" stroke="white" y1="131.04" y2="131.04"/>
                <line stroke-width="0.432" stroke-linecap="round"  x2="36" x1="38.52" stroke="white" y1="113.76" y2="113.76"/>
                <line stroke-width="0.432" stroke-linecap="round"  x2="28.8" x1="36" stroke="white" y1="113.76" y2="113.76"/>
                <line stroke-width="0.432" stroke-linecap="round"  x2="26.28" x1="28.8" stroke="white" y1="113.76" y2="113.76"/>
                <line stroke-width="0.432" stroke-linecap="round"  x2="35.64" x1="28.8" stroke="white" y1="131.04" y2="131.04"/>
                <line stroke-width="0.432" stroke-linecap="round"  x2="38.52" x1="35.64" stroke="white" y1="131.04" y2="131.04"/>
                <line stroke-width="0.432" stroke-linecap="round"  x2="41.04" x1="41.04" stroke="white" y1="124.56" y2="125.28"/>
                <line stroke-width="0.432" stroke-linecap="round"  x2="41.04" x1="41.04" stroke="white" y1="120.24" y2="119.52"/>
                <line stroke-width="0.432" stroke-linecap="round"  x2="23.76" x1="23.76" stroke="white" y1="124.56" y2="125.28"/>
                <line stroke-width="0.432" stroke-linecap="round"  x2="23.76" x1="23.76" stroke="white" y1="120.24" y2="119.52"/>
                <circle cy="122.4" fill="none" stroke-width="0.432"  cx="32.4" r="5.04" stroke="white"/>
                <circle cy="122.4" fill="none" stroke-width="0.432"  cx="32.4" r="0.72" stroke="white"/>
            </g>
        </g>
    </g>
    <g  id="copper1" gorn="0.2">
        <g  id="copper0" gorn="0.2.0">
            <circle cy="7.2" fill="none" stroke-width="0.95868"  connectorname="D9" cx="110.88" id="connector97pad" r="1.89666" gorn="0.2.0.0" stroke="#F7BD13"/>
            <circle cy="144" fill="none" stroke-width="0.95868"  connectorname="A0" cx="144" id="connector81pad" r="1.89666" gorn="0.2.0.1" stroke="#F7BD13"/>
            <circle cy="7.2" fill="none" stroke-width="0.95868"  connectorname="D1" cx="172.8" id="connector89pad" r="1.89666" gorn="0.2.0.2" stroke="#F7BD13"/>
            <circle cy="144" fill="none" stroke-width="0.95868"  connectorname="RESET" cx="93.6" id="connector105pad" r="1.89666" gorn="0.2.0.3" stroke="#F7BD13"/>
            <circle cy="144" fill="none" stroke-width="0.95868"  connectorname="SDA" cx="172.8" id="connector85pad" r="1.89666" gorn="0.2.0.4" stroke="#F7BD13"/>
            <circle cy="7.2" fill="none" stroke-width="0.95868"  connectorname="D5" cx="144" id="connector93pad" r="1.89666" gorn="0.2.0.5" stroke="#F7BD13"/>
            <circle cy="7.2" fill="none" stroke-width="0.95868"  connectorname="D13" cx="82.08" id="connector101pad" r="1.89666" gorn="0.2.0.6" stroke="#F7BD13"/>
            <circle cy="144" fill="none" stroke-width="0.95868"  connectorname="3.3V" cx="100.8" id="connector79pad" r="1.89666" gorn="0.2.0.7" stroke="#F7BD13"/>
            <circle cy="144" fill="none" stroke-width="0.95868"  connectorname="A2" cx="158.4" id="connector83pad" r="1.89666" gorn="0.2.0.8" stroke="#F7BD13"/>
            <circle cy="7.2" fill="none" stroke-width="0.95868"  connectorname="AREF" cx="67.68" id="connector87pad" r="1.89666" gorn="0.2.0.9" stroke="#F7BD13"/>
            <circle cy="7.2" fill="none" stroke-width="0.95868"  connectorname="D3" cx="158.4" id="connector91pad" r="1.89666" gorn="0.2.0.10" stroke="#F7BD13"/>
            <circle cy="7.2" fill="none" stroke-width="0.95868"  connectorname="D7" cx="129.6" id="connector95pad" r="1.89666" gorn="0.2.0.11" stroke="#F7BD13"/>
            <circle cy="7.2" fill="none" stroke-width="0.95868"  connectorname="D11" cx="96.48" id="connector99pad" r="1.89666" gorn="0.2.0.12" stroke="#F7BD13"/>
            <circle cy="144" fill="none" stroke-width="0.95868"  connectorname="GND" cx="122.4" id="connector103pad" r="1.89666" gorn="0.2.0.13" stroke="#F7BD13"/>
            <circle cy="7.2" fill="none" stroke-width="0.95868"  connectorname="SDA" cx="60.48" id="connector107pad" r="1.89666" gorn="0.2.0.14" stroke="#F7BD13"/>
            <circle cy="144" fill="none" stroke-width="0.95868"  connectorname="+5V" cx="108" id="connector80pad" r="1.89666" gorn="0.2.0.15" stroke="#F7BD13"/>
            <circle cy="144" fill="none" stroke-width="0.95868"  connectorname="A1" cx="151.2" id="connector82pad" r="1.89666" gorn="0.2.0.16" stroke="#F7BD13"/>
            <circle cy="144" fill="none" stroke-width="0.95868"  connectorname="A3" cx="165.6" id="connector84pad" r="1.89666" gorn="0.2.0.17" stroke="#F7BD13"/>
            <circle cy="144" fill="none" stroke-width="0.95868"  connectorname="SCL" cx="180" id="connector86pad" r="1.89666" gorn="0.2.0.18" stroke="#F7BD13"/>
            <circle cy="7.2" fill="none" stroke-width="0.95868"  connectorname="D0" cx="180" id="connector88pad" r="1.89666" gorn="0.2.0.19" stroke="#F7BD13"/>
            <circle cy="7.2" fill="none" stroke-width="0.95868"  connectorname="D2" cx="165.6" id="connector90pad" r="1.89666" gorn="0.2.0.20" stroke="#F7BD13"/>
            <circle cy="7.2" fill="none" stroke-width="0.95868"  connectorname="D4" cx="151.2" id="connector92pad" r="1.89666" gorn="0.2.0.21" stroke="#F7BD13"/>
            <circle cy="7.2" fill="none" stroke-width="0.95868"  connectorname="D6" cx="136.8" id="connector94pad" r="1.89666" gorn="0.2.0.22" stroke="#F7BD13"/>
            <circle cy="7.2" fill="none" stroke-width="0.95868"  connectorname="D8" cx="118.08" id="connector96pad" r="1.89666" gorn="0.2.0.23" stroke="#F7BD13"/>
            <circle cy="7.2" fill="none" stroke-width="0.95868"  connectorname="D10" cx="103.68" id="connector98pad" r="1.89666" gorn="0.2.0.24" stroke="#F7BD13"/>
            <circle cy="7.2" fill="none" stroke-width="0.95868"  connectorname="D12" cx="89.28" id="connector100pad" r="1.89666" gorn="0.2.0.25" stroke="#F7BD13"/>
            <circle cy="7.2" fill="none" stroke-width="0.95868"  connectorname="GND" cx="74.88" id="connector102pad" r="1.89666" gorn="0.2.0.26" stroke="#F7BD13"/>
            <circle cy="144" fill="none" stroke-width="0.95868"  connectorname="GND" cx="115.2" id="connector104pad" r="1.89666" gorn="0.2.0.27" stroke="#F7BD13"/>
            <circle cy="7.2" fill="none" stroke-width="0.95868"  connectorname="SCL" cx="53.28" id="connector106pad" r="1.89666" gorn="0.2.0.28" stroke="#F7BD13"/>
            <circle cy="144" fill="none" stroke-width="0.95868"  connectorname="VIN" cx="129.6" id="connector108pad" r="1.89666" gorn="0.2.0.29" stroke="#F7BD13"/>
        </g>
    </g>
</svg>
