<?xml version='1.0' encoding='UTF-8' standalone='no'?>
<!-- Created with Fritzing (http://www.fritzing.org/) -->
<svg xmlns="http://www.w3.org/2000/svg" y="0in" viewBox="0 0 213.12 151.2"  x="0in" baseProfile="tiny" width="2.96in" height="2.1in" version="1.2">
    <desc>
        <referenceFile>Adafruit 1.8 inch TFT Shield_pcb.svg</referenceFile>
    </desc>
    <desc >Fritzing footprint generated by brd2svg</desc>
    <g  id="silkscreen" gorn="0.1">
        <path fill="none"  stroke="white" d="M18.9574,150.912L18.9574,0.288L201.343,0.288L205.651,4.59154L205.651,36.8681L212.832,44.0407L212.832,136.567L205.651,143.739L205.651,150.912L18.9574,150.912M33.1841,97.5823a0.562393,0.562393,0,1,0,1.12478,0,0.562393,0.562393,0,1,0,-1.12478,0zM44.6644,106.654a0.987588,0.987588,0,1,0,1.97518,0,0.987588,0.987588,0,1,0,-1.97518,0zM85.4518,39.3165a0.562393,0.562393,0,1,0,1.12478,0,0.562393,0.562393,0,1,0,-1.12478,0zM85.4518,97.285a0.562393,0.562393,0,1,0,1.12478,0,0.562393,0.562393,0,1,0,-1.12478,0zM57.6726,7.2a4.24743,4.24743,0,1,0,8.49485,0,4.24743,4.24743,0,1,0,-8.49485,0zM201.673,50.4a4.24743,4.24743,0,1,0,8.49485,0,4.24743,4.24743,0,1,0,-8.49485,0zM54.0726,144a4.24743,4.24743,0,1,0,8.49485,0,4.24743,4.24743,0,1,0,-8.49485,0z" stroke-width="0.576"/>
        <g >
            <title >element:BTN1</title>
            <g >
                <title >package:SWITCH_4WAY_TPA511GLFS</title>
                <line x1="49.1244"  y2="91.3464" x2="26.3764" stroke="white" stroke-linecap="round" stroke-width="0.36" y1="91.3464"/>
                <line x1="49.1244"  y2="114.024" x2="26.3764" stroke="white" stroke-linecap="round" stroke-width="0.36" y1="114.024"/>
            </g>
        </g>
        <g >
            <title >element:DIGITALS</title>
            <g >
                <title >package:1X08-CLEANBIG</title>
            </g>
        </g>
        <g >
            <title >element:DIGITALS2</title>
            <g >
                <title >package:1X08-CLEANBIG</title>
            </g>
        </g>
        <g >
            <title >element:IC1</title>
            <g >
                <title >package:SO16</title>
                <line x1="50.04"  y2="12.456" x2="23.4" stroke="white" stroke-linecap="round" stroke-width="0.432" y1="12.456"/>
                <path fill="none"  stroke="white" d="M50.04,23.544A1.08,1.08,0,0,0,51.12,22.464" stroke-width="0.432"/>
                <path fill="none"  stroke="white" d="M23.4,12.456A1.08,1.08,0,0,0,22.32,13.536" stroke-width="0.432"/>
                <path fill="none"  stroke="white" d="M51.12,13.536A1.08,1.08,0,0,0,50.04,12.456" stroke-width="0.432"/>
                <path fill="none"  stroke="white" d="M22.32,22.464A1.08,1.08,0,0,0,23.4,23.544" stroke-width="0.432"/>
                <line x1="23.4"  y2="23.544" x2="50.04" stroke="white" stroke-linecap="round" stroke-width="0.432" y1="23.544"/>
                <line x1="51.12"  y2="13.536" x2="51.12" stroke="white" stroke-linecap="round" stroke-width="0.432" y1="22.464"/>
                <line x1="22.32"  y2="16.56" x2="22.32" stroke="white" stroke-linecap="round" stroke-width="0.432" y1="13.536"/>
                <line x1="22.32"  y2="19.44" x2="22.32" stroke="white" stroke-linecap="round" stroke-width="0.432" y1="16.56"/>
                <line x1="22.32"  y2="22.464" x2="22.32" stroke="white" stroke-linecap="round" stroke-width="0.432" y1="19.44"/>
                <path fill="none"  stroke="white" d="M22.32,19.44A1.44,1.44,0,1,0,22.32,16.56" stroke-width="0.432"/>
                <line x1="22.32"  y2="22.536" x2="51.12" stroke="white" stroke-linecap="round" stroke-width="0.144" y1="22.536"/>
            </g>
        </g>
        <g >
            <title >element:U$1</title>
            <g >
                <title >package:JD-T1800</title>
                <line x1="199.117"  y2="123.789" x2="199.117" stroke="white" stroke-linecap="round" stroke-width="0.36" y1="27.411"/>
                <line x1="199.117"  y2="123.789" x2="68.7231" stroke="white" stroke-linecap="round" stroke-width="0.36" y1="123.789"/>
                <line x1="68.7231"  y2="27.411" x2="68.7231" stroke="white" stroke-linecap="round" stroke-width="0.36" y1="123.789"/>
                <line x1="68.7231"  y2="27.411" x2="199.117" stroke="white" stroke-linecap="round" stroke-width="0.36" y1="27.411"/>
                <line x1="97.3534"  y2="90.3398" x2="97.3534" stroke="white" stroke-linecap="round" stroke-width="0.36" y1="60.8599"/>
            </g>
        </g>
        <g >
            <title >element:U$2</title>
            <g >
                <title >package:ARDUINO</title>
            </g>
        </g>
        <g >
            <title >element:U$3</title>
            <g >
                <title >package:MICROSD</title>
                <line x1="21.1635"  y2="75.685" x2="21.1635" stroke="white" stroke-linecap="round" stroke-width="0.36" y1="72.8503"/>
                <line x1="21.1635"  y2="75.685" x2="63.9666" stroke="white" stroke-linecap="round" stroke-width="0.36" y1="75.685"/>
                <line x1="63.9666"  y2="36" x2="63.9666" stroke="white" stroke-linecap="round" stroke-width="0.36" y1="75.685"/>
                <line x1="63.9666"  y2="36" x2="23.1477" stroke="white" stroke-linecap="round" stroke-width="0.36" y1="36"/>
                <line x1="23.1477"  y2="38.8346" x2="23.1477" stroke="white" stroke-linecap="round" stroke-width="0.36" y1="36"/>
                <path fill="none"  stroke="white" d="M25.6989,40.8189A2.28536,2.28536,0,0,0,23.1477,38.8346" stroke-width="0.36"/>
                <line x1="25.6989"  y2="68.315" x2="25.6989" stroke="white" stroke-linecap="round" stroke-width="0.36" y1="40.8189"/>
                <path fill="none"  stroke="white" d="M21.1635,72.8503A4.53543,4.53543,0,0,0,25.6989,68.315" stroke-width="0.36"/>
                <path fill="none"  stroke="white" d="M22.4107,37.1339A3.40158,3.40158,0,0,0,19.0092,40.5354" stroke-width="0.36"/>
                <line x1="19.0092"  y2="66.6142" x2="19.0092" stroke="white" stroke-linecap="round" stroke-width="0.36" y1="40.5354"/>
                <path fill="none"  stroke="white" d="M19.0092,66.6142A3.41336,3.41336,0,0,0,22.1273,70.2992" stroke-width="0.36"/>
                <path fill="none"  stroke="white" d="M19.8595,37.1339A3.40158,3.40158,0,0,0,16.458,40.5354" stroke-width="0.36"/>
                <line x1="16.458"  y2="66.6142" x2="16.458" stroke="white" stroke-linecap="round" stroke-width="0.36" y1="40.5354"/>
                <path fill="none"  stroke="white" d="M16.458,66.6142A3.41336,3.41336,0,0,0,19.5761,70.2992" stroke-width="0.36"/>
                <path fill="none"  stroke="white" d="M9.08784,37.1339A3.40158,3.40158,0,0,0,5.6863,40.5354" stroke-width="0.36"/>
                <line x1="5.6863"  y2="66.6142" x2="5.6863" stroke="white" stroke-linecap="round" stroke-width="0.36" y1="40.5354"/>
                <path fill="none"  stroke="white" d="M5.6863,66.6142A3.41336,3.41336,0,0,0,8.80438,70.2992" stroke-width="0.36"/>
            </g>
        </g>
        <g >
            <title >element:U$4</title>
            <g >
                <title >package:EVQ-Q2</title>
                <line x1="93.5942"  y2="146.744" x2="74.8858" stroke="white" stroke-linecap="round" stroke-width="0.36" y1="146.744"/>
                <line x1="74.8858"  y2="129.736" x2="74.8858" stroke="white" stroke-linecap="round" stroke-width="0.36" y1="146.744"/>
                <line x1="74.8858"  y2="129.736" x2="93.5942" stroke="white" stroke-linecap="round" stroke-width="0.36" y1="129.736"/>
                <line x1="93.5942"  y2="146.744" x2="93.5942" stroke="white" stroke-linecap="round" stroke-width="0.36" y1="129.736"/>
                <circle fill="none" cx="84.24"  stroke="white" stroke-width="0.36" cy="138.24" r="4.26132"/>
                <circle fill="none" cx="84.24"  stroke="white" stroke-width="0.36" cy="138.24" r="2.83465"/>
            </g>
        </g>
        <g >
            <title >element:U$5</title>
            <g >
                <title >package:ADAFRUIT_TEXT_30MM</title>
            </g>
        </g>
        <line fill="none" x1="0.288"  y2="150.912" x2="18.72" stroke="white" stroke-width="0.576" y1="150.912" fill-opacity="1"/>
        <line fill="none" x1="0.288"  y2="0.288" x2="18.72" stroke="white" stroke-width="0.576" y1="0.288" fill-opacity="1"/>
        <line fill="none" x1="0.288"  y2="0.288" x2="0.288" stroke="white" stroke-width="0.576" y1="150.912" fill-opacity="1"/>
        <line fill="none" x1="5.67451"  y2="75.685" x2="18.72" stroke="white" stroke-width="0.576" y1="75.685" fill-opacity="1"/>
        <line fill="none" x1="5.67451"  y2="36" x2="18.72" stroke="white" stroke-width="0.576" y1="36" fill-opacity="1"/>
        <line fill="none" x1="5.67451"  y2="36" x2="5.67451" stroke="white" stroke-width="0.576" y1="75.685" fill-opacity="1"/>
    </g>
    <g  id="copper1" gorn="0.2">
        <g  id="copper0" gorn="0.2.0">
            <circle fill="none" cx="191.52"  stroke="#F7BD13" stroke-width="1.08" id="connector1pad" connectorname="A4" cy="133.2" r="1.98" gorn="0.2.0.0"/>
            <circle fill="none" cx="112.32"  stroke="#F7BD13" stroke-width="0.95868" id="connector129pad" connectorname="RESET" cy="144" r="1.89666" gorn="0.2.0.1"/>
            <circle fill="none" cx="184.32"  stroke="#F7BD13" stroke-width="1.08" id="connector2pad" connectorname="NAVSW" cy="133.2" r="1.98" gorn="0.2.0.2"/>
            <circle fill="none" cx="177.12"  stroke="#F7BD13" stroke-width="1.08" id="connector3pad" connectorname="A2" cy="133.2" r="1.98" gorn="0.2.0.3"/>
            <circle fill="none" cx="191.52"  stroke="#F7BD13" stroke-width="0.95868" id="connector113pad" connectorname="D1" cy="7.2" r="1.89666" gorn="0.2.0.4"/>
            <circle fill="none" cx="169.92"  stroke="#F7BD13" stroke-width="1.08" id="connector4pad" connectorname="A1" cy="133.2" r="1.98" gorn="0.2.0.5"/>
            <circle fill="none" cx="162.72"  stroke="#F7BD13" stroke-width="1.08" id="connector5pad" connectorname="A0" cy="133.2" r="1.98" gorn="0.2.0.6"/>
            <circle fill="none" cx="142.56"  stroke="#F7BD13" stroke-width="0.72" id="connector6pad" connectorname="LITE" cy="22.32" r="1.8" gorn="0.2.0.7"/>
            <circle fill="none" cx="162.72"  stroke="#F7BD13" stroke-width="0.95868" id="connector105pad" connectorname="A0" cy="144" r="1.89666" gorn="0.2.0.8"/>
            <circle fill="none" cx="129.6"  stroke="#F7BD13" stroke-width="0.95868" id="connector121pad" connectorname="D9" cy="7.2" r="1.89666" gorn="0.2.0.9"/>
            <circle fill="none" cx="191.52"  stroke="#F7BD13" stroke-width="0.95868" id="connector109pad" connectorname="A4" cy="144" r="1.89666" gorn="0.2.0.10"/>
            <circle fill="none" cx="162.72"  stroke="#F7BD13" stroke-width="0.95868" id="connector117pad" connectorname="D5" cy="7.2" r="1.89666" gorn="0.2.0.11"/>
            <circle fill="none" cx="100.8"  stroke="#F7BD13" stroke-width="0.95868" id="connector125pad" connectorname="SCK" cy="7.2" r="1.89666" gorn="0.2.0.12"/>
            <circle fill="none" cx="148.32"  stroke="#F7BD13" stroke-width="1.08" id="connector22pad" connectorname="D7" cy="18" r="1.98" gorn="0.2.0.13"/>
            <circle fill="none" cx="155.52"  stroke="#F7BD13" stroke-width="1.08" id="connector23pad" connectorname="D6" cy="18" r="1.98" gorn="0.2.0.14"/>
            <circle fill="none" cx="162.72"  stroke="#F7BD13" stroke-width="1.08" id="connector24pad" connectorname="D5" cy="18" r="1.98" gorn="0.2.0.15"/>
            <circle fill="none" cx="169.92"  stroke="#F7BD13" stroke-width="1.08" id="connector25pad" connectorname="SD_CS" cy="18" r="1.98" gorn="0.2.0.16"/>
            <circle fill="none" cx="119.52"  stroke="#F7BD13" stroke-width="0.95868" id="connector103pad" connectorname="+3.3V" cy="144" r="1.89666" gorn="0.2.0.17"/>
            <circle fill="none" cx="177.12"  stroke="#F7BD13" stroke-width="1.08" id="connector26pad" connectorname="D3" cy="18" r="1.98" gorn="0.2.0.18"/>
            <circle fill="none" cx="177.12"  stroke="#F7BD13" stroke-width="0.95868" id="connector107pad" connectorname="A2" cy="144" r="1.89666" gorn="0.2.0.19"/>
            <circle fill="none" cx="184.32"  stroke="#F7BD13" stroke-width="1.08" id="connector27pad" connectorname="D2" cy="18" r="1.98" gorn="0.2.0.20"/>
            <circle fill="none" cx="86.4"  stroke="#F7BD13" stroke-width="0.95868" id="connector111pad" connectorname="AREF" cy="7.2" r="1.89666" gorn="0.2.0.21"/>
            <circle fill="none" cx="191.52"  stroke="#F7BD13" stroke-width="1.08" id="connector28pad" connectorname="D1" cy="18" r="1.98" gorn="0.2.0.22"/>
            <circle fill="none" cx="177.12"  stroke="#F7BD13" stroke-width="0.95868" id="connector115pad" connectorname="D3" cy="7.2" r="1.89666" gorn="0.2.0.23"/>
            <circle fill="none" cx="198.72"  stroke="#F7BD13" stroke-width="1.08" id="connector29pad" connectorname="D0" cy="18" r="1.98" gorn="0.2.0.24"/>
            <circle fill="none" cx="148.32"  stroke="#F7BD13" stroke-width="0.95868" id="connector119pad" connectorname="D7" cy="7.2" r="1.89666" gorn="0.2.0.25"/>
            <circle fill="none" cx="86.4"  stroke="#F7BD13" stroke-width="1.08" id="connector30pad" connectorname="AREF" cy="18" r="1.98" gorn="0.2.0.26"/>
            <circle fill="none" cx="115.2"  stroke="#F7BD13" stroke-width="0.95868" id="connector123pad" connectorname="MOSI" cy="7.2" r="1.89666" gorn="0.2.0.27"/>
            <circle fill="none" cx="93.6"  stroke="#F7BD13" stroke-width="1.08" id="connector31pad" connectorname="GND" cy="18" r="1.98" gorn="0.2.0.28"/>
            <circle fill="none" cx="141.12"  stroke="#F7BD13" stroke-width="0.95868" id="connector127pad" connectorname="GND" cy="144" r="1.89666" gorn="0.2.0.29"/>
            <circle fill="none" cx="100.8"  stroke="#F7BD13" stroke-width="1.08" id="connector32pad" connectorname="SCK" cy="18" r="1.98" gorn="0.2.0.30"/>
            <circle fill="none" cx="108"  stroke="#F7BD13" stroke-width="1.08" id="connector33pad" connectorname="MISO" cy="18" r="1.98" gorn="0.2.0.31"/>
            <circle fill="none" cx="115.2"  stroke="#F7BD13" stroke-width="1.08" id="connector34pad" connectorname="MOSI" cy="18" r="1.98" gorn="0.2.0.32"/>
            <circle fill="none" cx="122.4"  stroke="#F7BD13" stroke-width="1.08" id="connector35pad" connectorname="TFT_CS" cy="18" r="1.98" gorn="0.2.0.33"/>
            <circle fill="none" cx="129.6"  stroke="#F7BD13" stroke-width="1.08" id="connector36pad" connectorname="D9" cy="18" r="1.98" gorn="0.2.0.34"/>
            <circle fill="none" cx="136.8"  stroke="#F7BD13" stroke-width="1.08" id="connector37pad" connectorname="TFT_DC" cy="18" r="1.98" gorn="0.2.0.35"/>
            <circle fill="none" cx="126.72"  stroke="#F7BD13" stroke-width="0.95868" id="connector104pad" connectorname="+5V" cy="144" r="1.89666" gorn="0.2.0.36"/>
            <circle fill="none" cx="169.92"  stroke="#F7BD13" stroke-width="0.95868" id="connector106pad" connectorname="A1" cy="144" r="1.89666" gorn="0.2.0.37"/>
            <circle fill="none" cx="184.32"  stroke="#F7BD13" stroke-width="0.95868" id="connector108pad" connectorname="NAVSW" cy="144" r="1.89666" gorn="0.2.0.38"/>
            <circle fill="none" cx="198.72"  stroke="#F7BD13" stroke-width="0.95868" id="connector110pad" connectorname="A5" cy="144" r="1.89666" gorn="0.2.0.39"/>
            <circle fill="none" cx="198.72"  stroke="#F7BD13" stroke-width="0.95868" id="connector112pad" connectorname="D0" cy="7.2" r="1.89666" gorn="0.2.0.40"/>
            <circle fill="none" cx="184.32"  stroke="#F7BD13" stroke-width="0.95868" id="connector114pad" connectorname="D2" cy="7.2" r="1.89666" gorn="0.2.0.41"/>
            <circle fill="none" cx="169.92"  stroke="#F7BD13" stroke-width="0.95868" id="connector116pad" connectorname="SD_CS" cy="7.2" r="1.89666" gorn="0.2.0.42"/>
            <circle fill="none" cx="155.52"  stroke="#F7BD13" stroke-width="0.95868" id="connector118pad" connectorname="D6" cy="7.2" r="1.89666" gorn="0.2.0.43"/>
            <circle fill="none" cx="136.8"  stroke="#F7BD13" stroke-width="0.95868" id="connector120pad" connectorname="TFT_DC" cy="7.2" r="1.89666" gorn="0.2.0.44"/>
            <circle fill="none" cx="122.4"  stroke="#F7BD13" stroke-width="0.95868" id="connector122pad" connectorname="TFT_CS" cy="7.2" r="1.89666" gorn="0.2.0.45"/>
            <circle fill="none" cx="155.52"  stroke="#F7BD13" stroke-width="0.72" id="connector61pad" connectorname="NAVSW" cy="133.2" r="1.8" gorn="0.2.0.46"/>
            <circle fill="none" cx="108"  stroke="#F7BD13" stroke-width="0.95868" id="connector124pad" connectorname="MISO" cy="7.2" r="1.89666" gorn="0.2.0.47"/>
            <circle fill="none" cx="148.32"  stroke="#F7BD13" stroke-width="1.08" id="connector62pad" connectorname="VIN" cy="133.2" r="1.98" gorn="0.2.0.48"/>
            <circle fill="none" cx="93.6"  stroke="#F7BD13" stroke-width="0.95868" id="connector126pad" connectorname="GND" cy="7.2" r="1.89666" gorn="0.2.0.49"/>
            <circle fill="none" cx="141.12"  stroke="#F7BD13" stroke-width="1.08" id="connector63pad" connectorname="GND" cy="133.2" r="1.98" gorn="0.2.0.50"/>
            <circle fill="none" cx="133.92"  stroke="#F7BD13" stroke-width="0.95868" id="connector128pad" connectorname="GND" cy="144" r="1.89666" gorn="0.2.0.51"/>
            <circle fill="none" cx="133.92"  stroke="#F7BD13" stroke-width="1.08" id="connector64pad" connectorname="GND" cy="133.2" r="1.98" gorn="0.2.0.52"/>
            <circle fill="none" cx="148.32"  stroke="#F7BD13" stroke-width="0.95868" id="connector130pad" connectorname="VIN" cy="144" r="1.89666" gorn="0.2.0.53"/>
            <circle fill="none" cx="126.72"  stroke="#F7BD13" stroke-width="1.08" id="connector65pad" connectorname="+5V" cy="133.2" r="1.98" gorn="0.2.0.54"/>
            <circle fill="none" cx="119.52"  stroke="#F7BD13" stroke-width="1.08" id="connector66pad" connectorname="+3.3V" cy="133.2" r="1.98" gorn="0.2.0.55"/>
            <circle fill="none" cx="112.32"  stroke="#F7BD13" stroke-width="1.08" id="connector67pad" connectorname="RESET" cy="133.2" r="1.98" gorn="0.2.0.56"/>
            <circle fill="none" cx="198.72"  stroke="#F7BD13" stroke-width="1.08" id="connector0pad" connectorname="A5" cy="133.2" r="1.98" gorn="0.2.0.57"/>
        </g>
    </g>
</svg>
