<?xml version='1.0' encoding='utf-8'?>
<svg xmlns="http://www.w3.org/2000/svg" x="0in" viewBox="0 0 2249.37 1000" height="1in"  width="2.24937in" y="0in">
    <desc >
        <referenceFile >ATX_b12bde9fb8bf92cd889ab4a2007c85ee_1_breadboard.svg</referenceFile>
    </desc>
    <desc />
    <desc />
    <desc >Fritzing breadboard generated by brd2svg</desc>
    <path stroke="none" stroke-width="0" d="M 0 0 L 0 470 C 23.094 470 37.528 495 25.981 515 C 20.622 524.282 10.718 530 0 530 L 0 1000 L 2249.37 1000 L 2249.37 0 L 0 0 Z"  fill="#1F7A34"/>
    <rect x="104.786" height="352.966"  style="fill: rgb(242, 242, 242);" width="2041.43" y="353.025"/>
    <defs >
        <rect x="0" gorn="0.6.0" enable-background="new    " height="187.25"  width="2049.38" id="SVGID_1_" y="458.5"/>
    </defs>
    <rect x="133.467" height="85.117"  style="fill: rgb(230, 230, 230);" width="1994.136" y="614.163"/>
    <rect x="129.22" height="85.117"  style="fill: rgb(230, 230, 230);" width="1994.136" y="439.011"/>
    <g  transform="matrix(1, 0, 0, -0.999925, 1031.607678, 1278.046758)">
        <g >
            <rect x="-896.265" height="0.815"  style="fill: rgb(216, 216, 216);" width="1980.221" y="662.727"/>
        </g>
    </g>
    <g  transform="matrix(1, 0, 0, -1, 0, 0)">
        <g >
            <rect x="135.972" height="0.815"  style="fill: rgb(216, 216, 216);" width="1980.221" y="-439.372"/>
        </g>
    </g>
    <g  transform="matrix(-1, 0, 0, -1, 2252.785916, 1061.112069)">
        <g >
            <path d="M 229.189 539.998 L 250.314 539.998 L 289.564 584.301 L 289.564 619.483 L 289.564 698.938 L 137.439 698.938 L 137.439 584.156 L 178.314 539.969 L 197.814 539.969 L 201.689 539.969 L 225.314 539.969 L 229.189 539.969 M 395.314 539.998 L 455.689 539.998 L 455.689 619.483 L 455.689 698.938 L 303.564 698.938 L 303.564 539.969 L 363.939 539.969 L 367.814 539.969 L 391.314 539.969 L 395.314 539.969 M 561.453 539.998 L 621.703 539.998 L 621.703 619.483 L 621.703 698.938 L 469.689 698.938 L 469.689 539.969 L 530.064 539.969 L 533.939 539.969 L 557.439 539.969 L 561.453 539.969 M 727.439 539.998 L 743.564 539.998 L 787.814 583.807 L 787.814 619.512 L 787.814 698.938 L 635.703 698.938 L 635.703 583.778 L 678.953 539.969 L 696.078 539.969 L 700.078 539.969 L 723.578 539.969 L 727.439 539.969 M 893.564 539.998 L 913.689 539.998 L 953.814 584.185 L 953.814 619.512 L 953.939 619.512 L 953.939 698.938 L 953.814 698.938 L 801.814 698.938 L 801.814 584.011 L 843.564 539.969 L 862.189 539.969 L 866.189 539.969 L 889.689 539.969 L 893.564 539.969 M 1059.703 539.998 L 1119.953 539.998 L 1119.953 619.483 L 1120.078 619.483 L 1120.073 698.938 L 1119.948 698.938 L 967.939 698.938 L 967.939 539.969 L 1028.314 539.969 L 1032.189 539.969 L 1055.814 539.969 L 1059.703 539.969 M 1225.823 539.998 L 1286.073 539.998 L 1286.073 619.483 L 1286.083 698.938 L 1133.953 698.938 L 1133.953 539.969 L 1194.453 539.969 L 1198.314 539.969 L 1221.814 539.969 L 1225.823 539.969 M 1391.953 539.998 L 1407.453 539.998 L 1452.078 583.633 L 1452.078 619.483 L 1452.203 619.483 L 1452.203 698.938 L 1452.078 698.938 L 1300.063 698.938 L 1300.063 583.488 L 1346.563 539.969 L 1360.438 539.969 L 1364.438 539.969 L 1387.938 539.969 L 1391.813 539.969 L 1391.953 539.969 M 1557.953 539.998 L 1573.939 539.998 L 1618.203 583.807 L 1618.203 619.512 L 1618.328 619.512 L 1618.323 698.938 L 1618.198 698.938 L 1466.083 698.938 L 1466.083 583.604 L 1511.833 539.969 L 1526.583 539.969 L 1530.583 539.969 L 1554.083 539.969 L 1557.953 539.969 M 1724.083 539.998 L 1784.208 539.998 L 1784.208 619.483 L 1784.458 619.483 L 1784.453 698.938 L 1784.203 698.938 L 1632.203 698.938 L 1632.203 539.969 L 1692.703 539.969 L 1696.564 539.969 L 1720.189 539.969 L 1724.083 539.969 M 1890.203 539.998 L 1950.328 539.998 L 1950.328 619.483 L 1950.578 619.483 L 1950.573 698.938 L 1950.323 698.938 L 1798.198 698.938 L 1798.198 539.969 L 1858.823 539.969 L 1862.684 539.969 L 1886.184 539.969 L 1890.203 539.969 M 2056.323 539.998 L 2071.448 539.998 L 2116.448 583.633 L 2116.448 619.483 L 2116.573 619.483 L 2116.573 698.938 L 2116.448 698.938 L 1964.323 698.938 L 1964.323 583.894 L 2007.434 539.969 L 2024.809 539.969 L 2028.809 539.969 L 2052.309 539.969 L 2056.323 539.969 M 2123.693 530.556 L 130.328 530.556 L 130.328 699.578 L 2123.688 699.578 L 2123.693 530.556 M 2123.693 525.356 L 2123.693 354.33 L 2147.582 354.33 L 2147.582 525.356 L 2147.582 530.585 L 2147.582 699.607 L 2147.582 704.836 L 104.453 704.835 L 104.453 699.606 L 106.953 699.606 L 106.953 530.584 L 101.703 530.585 L 101.703 525.356 L 106.953 525.356 L 106.953 354.737 L 130.328 354.737 L 130.328 525.356 L 137.453 525.356 L 137.453 366.241 L 197.828 366.241 L 201.703 366.241 L 225.328 366.241 L 229.203 366.241 L 289.578 366.241 L 289.578 445.697 L 289.578 525.327 L 303.578 525.327 L 303.578 416.151 L 346.078 366.212 L 363.953 366.212 L 367.828 366.212 L 391.328 366.212 L 395.328 366.212 L 411.203 366.212 L 455.578 415.861 L 455.578 445.668 L 455.703 445.668 L 455.703 525.298 L 469.703 525.298 L 469.703 416.122 L 511.328 366.183 L 530.078 366.183 L 533.953 366.183 L 557.453 366.183 L 561.453 366.183 L 578.828 366.183 L 621.703 415.977 L 621.703 445.639 L 621.703 525.269 L 635.703 525.269 L 635.703 366.154 L 696.078 366.154 L 700.078 366.154 L 723.578 366.154 L 727.453 366.154 L 787.828 366.154 L 787.828 445.61 L 787.828 525.24 L 801.828 525.24 L 801.828 366.125 L 862.203 366.125 L 866.203 366.125 L 889.703 366.125 L 893.578 366.125 L 953.828 366.125 L 953.828 445.581 L 953.953 445.581 L 953.953 525.211 L 967.953 525.211 L 967.953 415.89 L 1011.828 366.096 L 1028.328 366.096 L 1032.203 366.096 L 1055.828 366.096 L 1059.703 366.096 L 1077.578 366.096 L 1119.953 416.035 L 1119.953 445.581 L 1120.078 445.581 L 1120.078 525.211 L 1133.953 525.211 L 1133.953 416.297 L 1173.953 366.096 L 1194.467 366.096 L 1198.328 366.096 L 1221.828 366.096 L 1225.828 366.096 L 1246.578 366.096 L 1286.078 416.297 L 1286.078 445.581 L 1286.078 525.211 L 1300.078 525.211 L 1300.078 366.096 L 1360.453 366.096 L 1364.453 366.096 L 1387.953 366.096 L 1391.828 366.096 L 1391.953 366.096 L 1452.078 366.096 L 1452.078 445.551 L 1452.203 445.551 L 1452.203 525.182 L 1466.078 525.182 L 1466.078 366.067 L 1526.564 366.067 L 1530.564 366.067 L 1554.064 366.067 L 1557.939 366.067 L 1618.189 366.067 L 1618.189 445.522 L 1618.314 445.522 L 1618.314 525.152 L 1632.189 525.152 L 1632.189 416.093 L 1673.314 366.037 L 1692.703 366.037 L 1696.564 366.037 L 1720.189 366.037 L 1724.064 366.037 L 1741.564 366.037 L 1784.314 415.977 L 1784.314 445.522 L 1784.439 445.522 L 1784.439 525.152 L 1798.189 525.152 L 1798.189 415.831 L 1842.189 366.037 L 1858.814 366.037 L 1862.676 366.037 L 1886.176 366.037 L 1890.176 366.037 L 1909.301 366.037 L 1950.301 416.093 L 1950.301 445.522 L 1950.551 445.522 L 1950.551 525.152 L 1964.301 525.152 L 1964.301 366.037 L 2024.787 366.037 L 2028.787 366.037 L 2052.287 366.037 L 2056.287 366.037 L 2116.412 366.037 L 2116.412 445.493 L 2116.537 445.493 L 2116.537 525.123 L 2123.693 525.124 M 2151.083 350.669 L 101.703 350.669 L 101.703 710.443 L 1059.064 710.443 L 1193.689 710.443 L 2151.078 710.443 L 2151.083 350.669"  fill="#CCCCCC"/>
        </g>
    </g>
    <g  transform="matrix(-1, 0, 0, -1, 392.925983, 1315.342035)">
        <g >
            <polyline points="196.463 620.47 196.463 683.6 196.463 694.872 196.463 620.47"  fill="#B1B1B1"/>
        </g>
    </g>
    <g  transform="matrix(-1, 0, 0, -1, 725.166147, 1315.342035)">
        <g >
            <polyline points="362.583 620.47 362.583 683.6 362.583 694.872 362.583 620.47"  fill="#B1B1B1"/>
        </g>
    </g>
    <g  transform="matrix(-1, 0, 0, -1, 1057.405986, 1315.342035)">
        <g >
            <polyline points="528.703 620.47 528.703 683.6 528.703 694.872 528.703 620.47"  fill="#B1B1B1"/>
        </g>
    </g>
    <g  transform="matrix(-1, 0, 0, -1, 1389.66597, 1315.342035)">
        <g >
            <polyline points="694.833 620.47 694.833 683.6 694.833 694.872 694.833 620.47"  fill="#B1B1B1"/>
        </g>
    </g>
    <g  transform="matrix(-1, 0, 0, -1, 2053.926005, 1315.342035)">
        <g >
            <polyline points="1026.963 620.47 1026.963 683.6 1026.963 694.872 1026.963 620.47"  fill="#B1B1B1"/>
        </g>
    </g>
    <g  transform="matrix(-1, 0, 0, -1, 2386.166169, 1315.342035)">
        <g >
            <polyline points="1193.083 620.47 1193.083 683.6 1193.083 694.872 1193.083 620.47"  fill="#B1B1B1"/>
        </g>
    </g>
    <g  transform="matrix(-1, 0, 0, -1, 2718.444023, 1315.342035)">
        <g >
            <polyline points="1359.222 620.47 1359.222 683.6 1359.222 694.872 1359.222 620.47"  fill="#B1B1B1"/>
        </g>
    </g>
    <g  transform="matrix(-1, 0, 0, -1, 3050.694097, 1315.342035)">
        <g >
            <polyline points="1525.347 620.47 1525.347 683.6 1525.347 694.872 1525.347 620.47"  fill="#B1B1B1"/>
        </g>
    </g>
    <g  transform="matrix(-1, 0, 0, -1, 3382.666044, 1315.342035)">
        <g >
            <polyline points="1691.333 620.47 1691.333 683.6 1691.333 694.872 1691.333 620.47"  fill="#B1B1B1"/>
        </g>
    </g>
    <g  transform="matrix(-1, 0, 0, -1, 3714.94406, 1315.342035)">
        <g >
            <polyline points="1857.472 620.47 1857.472 683.6 1857.472 694.872 1857.472 620.47"  fill="#B1B1B1"/>
        </g>
    </g>
    <g  transform="matrix(-1, 0, 0, -1, 4047.194133, 1315.342035)">
        <g >
            <polyline points="2023.597 620.47 2023.597 683.6 2023.597 694.872 2023.597 620.47"  fill="#B1B1B1"/>
        </g>
    </g>
    <g  transform="matrix(-1, 0, 0, -1, 2252.814834, 669.439937)">
        <g >
            <polyline points="1059.093 318.771 1059.093 350.669 1193.722 350.669 1193.722 334.837 1059.093 334.837 1059.093 318.771"  fill="#999999"/>
        </g>
    </g>
    <g  transform="matrix(-1, 0, 0, -1, 2252.814834, 685.271943)">
        <g >
            <polyline points="1193.722 334.603 1059.093 334.603 1059.093 350.669 1193.722 350.669 1193.722 334.603"  fill="#B3B3B3"/>
        </g>
    </g>
    <g  transform="matrix(-1, 0, 0, -1, 234.295014, 1068.315941)">
        <g >
            <path d="M 129.092 537.76 L 105.203 537.76 L 105.203 706.782 L 129.092 706.782 L 129.092 537.76 M 129.092 361.534 L 105.203 361.534 L 105.203 532.56 L 129.092 532.56 L 129.092 361.534"  fill="#999999"/>
        </g>
    </g>
    <g  transform="matrix(-1, 0, 0, -1, 4268.291018, 1067.909897)">
        <g >
            <path d="M 2145.833 537.355 L 2122.458 537.355 L 2122.458 706.376 L 2145.833 706.376 L 2145.833 537.355 M 2145.833 361.534 L 2122.458 361.534 L 2122.458 532.154 L 2145.833 532.154 L 2145.833 361.534"  fill="#999999"/>
        </g>
    </g>
    <g  transform="matrix(-1, 0, 0, -1, 2253.536143, 717.810022)">
        <g >
            <polyline points="2148.333 356.304 2124.443 356.304 131.078 356.304 107.703 356.304 105.203 356.304 105.203 361.506 2148.333 361.506 2148.333 356.304"  fill="#E6E6E6"/>
        </g>
    </g>
    <g  transform="matrix(-1, 0, 0, -1, 2256.286218, 1066.312048)">
        <g >
            <polyline points="2151.083 530.556 2127.193 530.556 2120.073 530.556 1968.063 530.556 1967.823 530.556 1954.063 530.556 1801.943 530.556 1801.703 530.556 1787.943 530.556 1635.813 530.556 1635.703 530.556 1621.823 530.556 1469.813 530.556 1469.583 530.556 1455.703 530.556 1303.693 530.556 1303.563 530.556 1289.583 530.556 1137.563 530.556 1137.453 530.556 1123.573 530.556 971.439 530.556 957.453 530.556 805.453 530.556 805.314 530.556 791.328 530.556 639.328 530.556 639.203 530.556 625.203 530.556 473.189 530.556 459.203 530.556 307.064 530.556 293.078 530.556 140.939 530.556 133.828 530.556 110.453 530.556 105.203 530.556 105.203 535.756 110.453 535.756 133.828 535.756 2127.193 535.756 2151.083 535.756 2151.083 530.556"  fill="#E6E6E6"/>
        </g>
    </g>
    <g  transform="matrix(1, 0, 0, 1, 558.719971, 934.049988)">
        <g >
            <g >
                <g >
                    <g >
                        <rect x="0" gorn="0.29.0.0.0.0.0" height="31.9"  width="31.93" fill="#8D8C8C" id="connector0pin" y="0"/>
                        <rect x="7.79153" height="16.4152"  width="16.4442" fill="#8C8663" y="7.73544"/>
                        <polygon points="0,31.9,7.79153,24.1368,7.79153,6.97162,0,0"  fill="#B8AF82"/>
                        <polygon points="24.2079,7.76321,7.90264,7.76321,0,0,31.93,0"  fill="#80795B"/>
                        <polygon points="24.2079,24.1368,24.2079,7.76321,31.93,0,31.93,31.9"  fill="#5E5B43"/>
                        <polygon points="0,31.9,7.87486,24.1368,24.2079,24.1368,31.93,31.9"  fill="#9A916C"/>
                    </g>
                </g>
            </g>
        </g>
    </g>
    <g  transform="matrix(1, 0, 0, 1, 558.719971, 34.049999)">
        <g >
            <g >
                <g >
                    <g >
                        <rect x="0" gorn="0.30.0.0.0.0.0" height="31.9"  width="31.93" fill="#8D8C8C" id="connector23pin" y="0"/>
                        <rect x="7.79153" height="16.4152"  width="16.4442" fill="#8C8663" y="7.73544"/>
                        <polygon points="0,31.9,7.79153,24.1368,7.79153,6.97162,0,0"  fill="#B8AF82"/>
                        <polygon points="24.2079,7.76321,7.90264,7.76321,0,0,31.93,0"  fill="#80795B"/>
                        <polygon points="24.2079,24.1368,24.2079,7.76321,31.93,0,31.93,31.9"  fill="#5E5B43"/>
                        <polygon points="0,31.9,7.87486,24.1368,24.2079,24.1368,31.93,31.9"  fill="#9A916C"/>
                    </g>
                </g>
            </g>
        </g>
    </g>
    <g  transform="matrix(1, 0, 0, 1, 658.719971, 934.049988)">
        <g >
            <g >
                <g >
                    <g >
                        <rect x="0" gorn="0.31.0.0.0.0.0" height="31.9"  width="31.93" fill="#8D8C8C" id="connector1pin" y="0"/>
                        <rect x="7.79153" height="16.4152"  width="16.4442" fill="#8C8663" y="7.73544"/>
                        <polygon points="0,31.9,7.79153,24.1368,7.79153,6.97162,0,0"  fill="#B8AF82"/>
                        <polygon points="24.2079,7.76321,7.90264,7.76321,0,0,31.93,0"  fill="#80795B"/>
                        <polygon points="24.2079,24.1368,24.2079,7.76321,31.93,0,31.93,31.9"  fill="#5E5B43"/>
                        <polygon points="0,31.9,7.87486,24.1368,24.2079,24.1368,31.93,31.9"  fill="#9A916C"/>
                    </g>
                </g>
            </g>
        </g>
    </g>
    <g  transform="matrix(1, 0, 0, 1, 658.719971, 34.049999)">
        <g >
            <g >
                <g >
                    <g >
                        <rect x="0" gorn="0.32.0.0.0.0.0" height="31.9"  width="31.93" fill="#8D8C8C" id="connector22pin" y="0"/>
                        <rect x="7.79153" height="16.4152"  width="16.4442" fill="#8C8663" y="7.73544"/>
                        <polygon points="0,31.9,7.79153,24.1368,7.79153,6.97162,0,0"  fill="#B8AF82"/>
                        <polygon points="24.2079,7.76321,7.90264,7.76321,0,0,31.93,0"  fill="#80795B"/>
                        <polygon points="24.2079,24.1368,24.2079,7.76321,31.93,0,31.93,31.9"  fill="#5E5B43"/>
                        <polygon points="0,31.9,7.87486,24.1368,24.2079,24.1368,31.93,31.9"  fill="#9A916C"/>
                    </g>
                </g>
            </g>
        </g>
    </g>
    <g  transform="matrix(1, 0, 0, 1, 758.719971, 934.049988)">
        <g >
            <g >
                <g >
                    <g >
                        <rect x="0" gorn="0.33.0.0.0.0.0" height="31.9"  width="31.93" fill="#8D8C8C" id="connector2pin" y="0"/>
                        <rect x="7.79153" height="16.4152"  width="16.4442" fill="#8C8663" y="7.73544"/>
                        <polygon points="0,31.9,7.79153,24.1368,7.79153,6.97162,0,0"  fill="#B8AF82"/>
                        <polygon points="24.2079,7.76321,7.90264,7.76321,0,0,31.93,0"  fill="#80795B"/>
                        <polygon points="24.2079,24.1368,24.2079,7.76321,31.93,0,31.93,31.9"  fill="#5E5B43"/>
                        <polygon points="0,31.9,7.87486,24.1368,24.2079,24.1368,31.93,31.9"  fill="#9A916C"/>
                    </g>
                </g>
            </g>
        </g>
    </g>
    <g  transform="matrix(1, 0, 0, 1, 758.719971, 34.049999)">
        <g >
            <g >
                <g >
                    <g >
                        <rect x="0" gorn="0.34.0.0.0.0.0" height="31.9"  width="31.93" fill="#8D8C8C" id="connector21pin" y="0"/>
                        <rect x="7.79153" height="16.4152"  width="16.4442" fill="#8C8663" y="7.73544"/>
                        <polygon points="0,31.9,7.79153,24.1368,7.79153,6.97162,0,0"  fill="#B8AF82"/>
                        <polygon points="24.2079,7.76321,7.90264,7.76321,0,0,31.93,0"  fill="#80795B"/>
                        <polygon points="24.2079,24.1368,24.2079,7.76321,31.93,0,31.93,31.9"  fill="#5E5B43"/>
                        <polygon points="0,31.9,7.87486,24.1368,24.2079,24.1368,31.93,31.9"  fill="#9A916C"/>
                    </g>
                </g>
            </g>
        </g>
    </g>
    <g  transform="matrix(1, 0, 0, 1, 858.719971, 934.049988)">
        <g >
            <g >
                <g >
                    <g >
                        <rect x="0" gorn="0.35.0.0.0.0.0" height="31.9"  width="31.93" fill="#8D8C8C" id="connector3pin" y="0"/>
                        <rect x="7.79153" height="16.4152"  width="16.4442" fill="#8C8663" y="7.73544"/>
                        <polygon points="0,31.9,7.79153,24.1368,7.79153,6.97162,0,0"  fill="#B8AF82"/>
                        <polygon points="24.2079,7.76321,7.90264,7.76321,0,0,31.93,0"  fill="#80795B"/>
                        <polygon points="24.2079,24.1368,24.2079,7.76321,31.93,0,31.93,31.9"  fill="#5E5B43"/>
                        <polygon points="0,31.9,7.87486,24.1368,24.2079,24.1368,31.93,31.9"  fill="#9A916C"/>
                    </g>
                </g>
            </g>
        </g>
    </g>
    <g  transform="matrix(1, 0, 0, 1, 858.719971, 34.049999)">
        <g >
            <g >
                <g >
                    <g >
                        <rect x="0" gorn="0.36.0.0.0.0.0" height="31.9"  width="31.93" fill="#8D8C8C" id="connector20pin" y="0"/>
                        <rect x="7.79153" height="16.4152"  width="16.4442" fill="#8C8663" y="7.73544"/>
                        <polygon points="0,31.9,7.79153,24.1368,7.79153,6.97162,0,0"  fill="#B8AF82"/>
                        <polygon points="24.2079,7.76321,7.90264,7.76321,0,0,31.93,0"  fill="#80795B"/>
                        <polygon points="24.2079,24.1368,24.2079,7.76321,31.93,0,31.93,31.9"  fill="#5E5B43"/>
                        <polygon points="0,31.9,7.87486,24.1368,24.2079,24.1368,31.93,31.9"  fill="#9A916C"/>
                    </g>
                </g>
            </g>
        </g>
    </g>
    <g  transform="matrix(1, 0, 0, 1, 958.719971, 934.049988)">
        <g >
            <g >
                <g >
                    <g >
                        <rect x="0" gorn="0.37.0.0.0.0.0" height="31.9"  width="31.93" fill="#8D8C8C" id="connector4pin" y="0"/>
                        <rect x="7.79153" height="16.4152"  width="16.4442" fill="#8C8663" y="7.73544"/>
                        <polygon points="0,31.9,7.79153,24.1368,7.79153,6.97162,0,0"  fill="#B8AF82"/>
                        <polygon points="24.2079,7.76321,7.90264,7.76321,0,0,31.93,0"  fill="#80795B"/>
                        <polygon points="24.2079,24.1368,24.2079,7.76321,31.93,0,31.93,31.9"  fill="#5E5B43"/>
                        <polygon points="0,31.9,7.87486,24.1368,24.2079,24.1368,31.93,31.9"  fill="#9A916C"/>
                    </g>
                </g>
            </g>
        </g>
    </g>
    <g  transform="matrix(1, 0, 0, 1, 958.719971, 34.049999)">
        <g >
            <g >
                <g >
                    <g >
                        <rect x="0" gorn="0.38.0.0.0.0.0" height="31.9"  width="31.93" fill="#8D8C8C" id="connector19pin" y="0"/>
                        <rect x="7.79153" height="16.4152"  width="16.4442" fill="#8C8663" y="7.73544"/>
                        <polygon points="0,31.9,7.79153,24.1368,7.79153,6.97162,0,0"  fill="#B8AF82"/>
                        <polygon points="24.2079,7.76321,7.90264,7.76321,0,0,31.93,0"  fill="#80795B"/>
                        <polygon points="24.2079,24.1368,24.2079,7.76321,31.93,0,31.93,31.9"  fill="#5E5B43"/>
                        <polygon points="0,31.9,7.87486,24.1368,24.2079,24.1368,31.93,31.9"  fill="#9A916C"/>
                    </g>
                </g>
            </g>
        </g>
    </g>
    <g  transform="matrix(1, 0, 0, 1, 1058.719971, 934.049988)">
        <g >
            <g >
                <g >
                    <g >
                        <rect x="0" gorn="0.39.0.0.0.0.0" height="31.9"  width="31.93" fill="#8D8C8C" id="connector5pin" y="0"/>
                        <rect x="7.79153" height="16.4152"  width="16.4442" fill="#8C8663" y="7.73544"/>
                        <polygon points="0,31.9,7.79153,24.1368,7.79153,6.97162,0,0"  fill="#B8AF82"/>
                        <polygon points="24.2079,7.76321,7.90264,7.76321,0,0,31.93,0"  fill="#80795B"/>
                        <polygon points="24.2079,24.1368,24.2079,7.76321,31.93,0,31.93,31.9"  fill="#5E5B43"/>
                        <polygon points="0,31.9,7.87486,24.1368,24.2079,24.1368,31.93,31.9"  fill="#9A916C"/>
                    </g>
                </g>
            </g>
        </g>
    </g>
    <g  transform="matrix(1, 0, 0, 1, 1058.719971, 34.049999)">
        <g >
            <g >
                <g >
                    <g >
                        <rect x="0" gorn="0.40.0.0.0.0.0" height="31.9"  width="31.93" fill="#8D8C8C" id="connector18pin" y="0"/>
                        <rect x="7.79153" height="16.4152"  width="16.4442" fill="#8C8663" y="7.73544"/>
                        <polygon points="0,31.9,7.79153,24.1368,7.79153,6.97162,0,0"  fill="#B8AF82"/>
                        <polygon points="24.2079,7.76321,7.90264,7.76321,0,0,31.93,0"  fill="#80795B"/>
                        <polygon points="24.2079,24.1368,24.2079,7.76321,31.93,0,31.93,31.9"  fill="#5E5B43"/>
                        <polygon points="0,31.9,7.87486,24.1368,24.2079,24.1368,31.93,31.9"  fill="#9A916C"/>
                    </g>
                </g>
            </g>
        </g>
    </g>
    <g  transform="matrix(1, 0, 0, 1, 1158.719971, 934.049988)">
        <g >
            <g >
                <g >
                    <g >
                        <rect x="0" gorn="0.41.0.0.0.0.0" height="31.9"  width="31.93" fill="#8D8C8C" id="connector6pin" y="0"/>
                        <rect x="7.79153" height="16.4152"  width="16.4442" fill="#8C8663" y="7.73544"/>
                        <polygon points="0,31.9,7.79153,24.1368,7.79153,6.97162,0,0"  fill="#B8AF82"/>
                        <polygon points="24.2079,7.76321,7.90264,7.76321,0,0,31.93,0"  fill="#80795B"/>
                        <polygon points="24.2079,24.1368,24.2079,7.76321,31.93,0,31.93,31.9"  fill="#5E5B43"/>
                        <polygon points="0,31.9,7.87486,24.1368,24.2079,24.1368,31.93,31.9"  fill="#9A916C"/>
                    </g>
                </g>
            </g>
        </g>
    </g>
    <g  transform="matrix(1, 0, 0, 1, 1158.719971, 34.049999)">
        <g >
            <g >
                <g >
                    <g >
                        <rect x="0" gorn="0.42.0.0.0.0.0" height="31.9"  width="31.93" fill="#8D8C8C" id="connector17pin" y="0"/>
                        <rect x="7.79153" height="16.4152"  width="16.4442" fill="#8C8663" y="7.73544"/>
                        <polygon points="0,31.9,7.79153,24.1368,7.79153,6.97162,0,0"  fill="#B8AF82"/>
                        <polygon points="24.2079,7.76321,7.90264,7.76321,0,0,31.93,0"  fill="#80795B"/>
                        <polygon points="24.2079,24.1368,24.2079,7.76321,31.93,0,31.93,31.9"  fill="#5E5B43"/>
                        <polygon points="0,31.9,7.87486,24.1368,24.2079,24.1368,31.93,31.9"  fill="#9A916C"/>
                    </g>
                </g>
            </g>
        </g>
    </g>
    <g  transform="matrix(1, 0, 0, 1, 1258.719971, 934.049988)">
        <g >
            <g >
                <g >
                    <g >
                        <rect x="0" gorn="0.43.0.0.0.0.0" height="31.9"  width="31.93" fill="#8D8C8C" id="connector7pin" y="0"/>
                        <rect x="7.79153" height="16.4152"  width="16.4442" fill="#8C8663" y="7.73544"/>
                        <polygon points="0,31.9,7.79153,24.1368,7.79153,6.97162,0,0"  fill="#B8AF82"/>
                        <polygon points="24.2079,7.76321,7.90264,7.76321,0,0,31.93,0"  fill="#80795B"/>
                        <polygon points="24.2079,24.1368,24.2079,7.76321,31.93,0,31.93,31.9"  fill="#5E5B43"/>
                        <polygon points="0,31.9,7.87486,24.1368,24.2079,24.1368,31.93,31.9"  fill="#9A916C"/>
                    </g>
                </g>
            </g>
        </g>
    </g>
    <g  transform="matrix(1, 0, 0, 1, 1258.719971, 34.049999)">
        <g >
            <g >
                <g >
                    <g >
                        <rect x="0" gorn="0.44.0.0.0.0.0" height="31.9"  width="31.93" fill="#8D8C8C" id="connector16pin" y="0"/>
                        <rect x="7.79153" height="16.4152"  width="16.4442" fill="#8C8663" y="7.73544"/>
                        <polygon points="0,31.9,7.79153,24.1368,7.79153,6.97162,0,0"  fill="#B8AF82"/>
                        <polygon points="24.2079,7.76321,7.90264,7.76321,0,0,31.93,0"  fill="#80795B"/>
                        <polygon points="24.2079,24.1368,24.2079,7.76321,31.93,0,31.93,31.9"  fill="#5E5B43"/>
                        <polygon points="0,31.9,7.87486,24.1368,24.2079,24.1368,31.93,31.9"  fill="#9A916C"/>
                    </g>
                </g>
            </g>
        </g>
    </g>
    <g  transform="matrix(1, 0, 0, 1, 1358.719971, 934.049988)">
        <g >
            <g >
                <g >
                    <g >
                        <rect x="0" gorn="0.45.0.0.0.0.0" height="31.9"  width="31.93" fill="#8D8C8C" id="connector8pin" y="0"/>
                        <rect x="7.79153" height="16.4152"  width="16.4442" fill="#8C8663" y="7.73544"/>
                        <polygon points="0,31.9,7.79153,24.1368,7.79153,6.97162,0,0"  fill="#B8AF82"/>
                        <polygon points="24.2079,7.76321,7.90264,7.76321,0,0,31.93,0"  fill="#80795B"/>
                        <polygon points="24.2079,24.1368,24.2079,7.76321,31.93,0,31.93,31.9"  fill="#5E5B43"/>
                        <polygon points="0,31.9,7.87486,24.1368,24.2079,24.1368,31.93,31.9"  fill="#9A916C"/>
                    </g>
                </g>
            </g>
        </g>
    </g>
    <g  transform="matrix(1, 0, 0, 1, 1358.719971, 34.049999)">
        <g >
            <g >
                <g >
                    <g >
                        <rect x="0" gorn="0.46.0.0.0.0.0" height="31.9"  width="31.93" fill="#8D8C8C" id="connector15pin" y="0"/>
                        <rect x="7.79153" height="16.4152"  width="16.4442" fill="#8C8663" y="7.73544"/>
                        <polygon points="0,31.9,7.79153,24.1368,7.79153,6.97162,0,0"  fill="#B8AF82"/>
                        <polygon points="24.2079,7.76321,7.90264,7.76321,0,0,31.93,0"  fill="#80795B"/>
                        <polygon points="24.2079,24.1368,24.2079,7.76321,31.93,0,31.93,31.9"  fill="#5E5B43"/>
                        <polygon points="0,31.9,7.87486,24.1368,24.2079,24.1368,31.93,31.9"  fill="#9A916C"/>
                    </g>
                </g>
            </g>
        </g>
    </g>
    <g  transform="matrix(1, 0, 0, 1, 1458.719971, 934.049988)">
        <g >
            <g >
                <g >
                    <g >
                        <rect x="0" gorn="0.47.0.0.0.0.0" height="31.9"  width="31.93" fill="#8D8C8C" id="connector9pin" y="0"/>
                        <rect x="7.79153" height="16.4152"  width="16.4442" fill="#8C8663" y="7.73544"/>
                        <polygon points="0,31.9,7.79153,24.1368,7.79153,6.97162,0,0"  fill="#B8AF82"/>
                        <polygon points="24.2079,7.76321,7.90264,7.76321,0,0,31.93,0"  fill="#80795B"/>
                        <polygon points="24.2079,24.1368,24.2079,7.76321,31.93,0,31.93,31.9"  fill="#5E5B43"/>
                        <polygon points="0,31.9,7.87486,24.1368,24.2079,24.1368,31.93,31.9"  fill="#9A916C"/>
                    </g>
                </g>
            </g>
        </g>
    </g>
    <g  transform="matrix(1, 0, 0, 1, 1458.719971, 34.049999)">
        <g >
            <g >
                <g >
                    <g >
                        <rect x="0" gorn="0.48.0.0.0.0.0" height="31.9"  width="31.93" fill="#8D8C8C" id="connector14pin" y="0"/>
                        <rect x="7.79153" height="16.4152"  width="16.4442" fill="#8C8663" y="7.73544"/>
                        <polygon points="0,31.9,7.79153,24.1368,7.79153,6.97162,0,0"  fill="#B8AF82"/>
                        <polygon points="24.2079,7.76321,7.90264,7.76321,0,0,31.93,0"  fill="#80795B"/>
                        <polygon points="24.2079,24.1368,24.2079,7.76321,31.93,0,31.93,31.9"  fill="#5E5B43"/>
                        <polygon points="0,31.9,7.87486,24.1368,24.2079,24.1368,31.93,31.9"  fill="#9A916C"/>
                    </g>
                </g>
            </g>
        </g>
    </g>
    <g  transform="matrix(1, 0, 0, 1, 1558.719971, 934.049988)">
        <g >
            <g >
                <g >
                    <g >
                        <rect x="0" gorn="0.49.0.0.0.0.0" height="31.9"  width="31.93" fill="#8D8C8C" id="connector10pin" y="0"/>
                        <rect x="7.79153" height="16.4152"  width="16.4442" fill="#8C8663" y="7.73544"/>
                        <polygon points="0,31.9,7.79153,24.1368,7.79153,6.97162,0,0"  fill="#B8AF82"/>
                        <polygon points="24.2079,7.76321,7.90264,7.76321,0,0,31.93,0"  fill="#80795B"/>
                        <polygon points="24.2079,24.1368,24.2079,7.76321,31.93,0,31.93,31.9"  fill="#5E5B43"/>
                        <polygon points="0,31.9,7.87486,24.1368,24.2079,24.1368,31.93,31.9"  fill="#9A916C"/>
                    </g>
                </g>
            </g>
        </g>
    </g>
    <g  transform="matrix(1, 0, 0, 1, 1558.719971, 34.049999)">
        <g >
            <g >
                <g >
                    <g >
                        <rect x="0" gorn="0.50.0.0.0.0.0" height="31.9"  width="31.93" fill="#8D8C8C" id="connector13pin" y="0"/>
                        <rect x="7.79153" height="16.4152"  width="16.4442" fill="#8C8663" y="7.73544"/>
                        <polygon points="0,31.9,7.79153,24.1368,7.79153,6.97162,0,0"  fill="#B8AF82"/>
                        <polygon points="24.2079,7.76321,7.90264,7.76321,0,0,31.93,0"  fill="#80795B"/>
                        <polygon points="24.2079,24.1368,24.2079,7.76321,31.93,0,31.93,31.9"  fill="#5E5B43"/>
                        <polygon points="0,31.9,7.87486,24.1368,24.2079,24.1368,31.93,31.9"  fill="#9A916C"/>
                    </g>
                </g>
            </g>
        </g>
    </g>
    <g  transform="matrix(1, 0, 0, 1, 1658.719971, 934.049988)">
        <g >
            <g >
                <g >
                    <g >
                        <rect x="0" gorn="0.51.0.0.0.0.0" height="31.9"  width="31.93" fill="#8D8C8C" id="connector11pin" y="0"/>
                        <rect x="7.79153" height="16.4152"  width="16.4442" fill="#8C8663" y="7.73544"/>
                        <polygon points="0,31.9,7.79153,24.1368,7.79153,6.97162,0,0"  fill="#B8AF82"/>
                        <polygon points="24.2079,7.76321,7.90264,7.76321,0,0,31.93,0"  fill="#80795B"/>
                        <polygon points="24.2079,24.1368,24.2079,7.76321,31.93,0,31.93,31.9"  fill="#5E5B43"/>
                        <polygon points="0,31.9,7.87486,24.1368,24.2079,24.1368,31.93,31.9"  fill="#9A916C"/>
                    </g>
                </g>
            </g>
        </g>
    </g>
    <g  transform="matrix(1, 0, 0, 1, 1658.719971, 34.049999)">
        <g >
            <g >
                <g >
                    <g >
                        <rect x="0" gorn="0.52.0.0.0.0.0" height="31.9"  width="31.93" fill="#8D8C8C" id="connector12pin" y="0"/>
                        <rect x="7.79153" height="16.4152"  width="16.4442" fill="#8C8663" y="7.73544"/>
                        <polygon points="0,31.9,7.79153,24.1368,7.79153,6.97162,0,0"  fill="#B8AF82"/>
                        <polygon points="24.2079,7.76321,7.90264,7.76321,0,0,31.93,0"  fill="#80795B"/>
                        <polygon points="24.2079,24.1368,24.2079,7.76321,31.93,0,31.93,31.9"  fill="#5E5B43"/>
                        <polygon points="0,31.9,7.87486,24.1368,24.2079,24.1368,31.93,31.9"  fill="#9A916C"/>
                    </g>
                </g>
            </g>
        </g>
    </g>
    <g  transform="matrix(1, 0, 0, 1.000001, 360.748352, -210.347681)">
        <g >
            <rect x="-164.292" height="32.083"  style="fill: rgb(153, 153, 153);" width="31.514" y="635.078"/>
        </g>
    </g>
    <g  transform="matrix(0, -1, 1, 0, -220.813477, 660.656496)">
        <g >
            <polyline points="219.865 432.685 203.808 448.785 236.035 448.785 219.865 432.685"  style="fill: rgb(230, 230, 230);"/>
        </g>
    </g>
    <g  transform="matrix(-1, 0, 0, -1, 424.286988, 865.924989)">
        <g >
            <polyline points="212.089 424.741 196.458 441.184 227.829 441.184 212.089 424.741"  style="fill: rgb(204, 204, 204);"/>
        </g>
    </g>
    <g  transform="matrix(-1, 0, 0, -1, 424.35901, 898.00195)">
        <g >
            <polyline points="212.124 456.823 196.409 441.179 227.95 441.179 212.124 456.823"  style="fill: rgb(179, 179, 179);"/>
        </g>
    </g>
    <g  transform="matrix(1, 0, 0, 1.000001, 526.888852, -210.021264)">
        <g >
            <rect x="-164.292" height="32.083"  style="fill: rgb(153, 153, 153);" width="31.514" y="635.081"/>
        </g>
    </g>
    <g  transform="matrix(0, -1, 1, 0, -55.001522, 827.126527)">
        <g >
            <polyline points="386.006 433.014 369.949 449.114 402.176 449.114 386.006 433.014"  style="fill: rgb(230, 230, 230);"/>
        </g>
    </g>
    <g  transform="matrix(-1, 0, 0, -1, 756.568976, 866.583012)">
        <g >
            <polyline points="378.23 425.07 362.599 441.513 393.97 441.513 378.23 425.07"  style="fill: rgb(204, 204, 204);"/>
        </g>
    </g>
    <g  transform="matrix(-1, 0, 0, -1, 756.640985, 898.660035)">
        <g >
            <polyline points="378.265 457.152 362.55 441.508 394.091 441.508 378.265 457.152"  style="fill: rgb(179, 179, 179);"/>
        </g>
    </g>
    <rect x="528.659" height="32.083"  style="fill: rgb(153, 153, 153);" width="31.514" y="425.176"/>
    <g  transform="matrix(0, -1, 1, 0, 110.943541, 993.303527)">
        <g >
            <polyline points="552.067 433.13 536.01 449.23 568.237 449.23 552.067 433.13"  style="fill: rgb(230, 230, 230);"/>
        </g>
    </g>
    <g  transform="matrix(-1, 0, 0, -1, 1088.690923, 866.815004)">
        <g >
            <polyline points="544.291 425.186 528.66 441.629 560.031 441.629 544.291 425.186"  style="fill: rgb(204, 204, 204);"/>
        </g>
    </g>
    <g  transform="matrix(-1, 0, 0, -1, 1088.762941, 898.891969)">
        <g >
            <polyline points="544.326 457.268 528.611 441.624 560.152 441.624 544.326 457.268"  style="fill: rgb(179, 179, 179);"/>
        </g>
    </g>
    <g  transform="matrix(1, 0, 0, 1.000001, 859.081845, -209.973382)">
        <g >
            <rect x="-164.292" height="32.083"  style="fill: rgb(153, 153, 153);" width="31.514" y="635.081"/>
        </g>
    </g>
    <g  transform="matrix(0, -1, 1, 0, 277.144471, 1159.366515)">
        <g >
            <polyline points="718.199 433.061 702.142 449.161 734.369 449.161 718.199 433.061"  style="fill: rgb(230, 230, 230);"/>
        </g>
    </g>
    <g  transform="matrix(-1, 0, 0, -1, 1420.955076, 866.677004)">
        <g >
            <polyline points="710.423 425.117 694.792 441.56 726.163 441.56 710.423 425.117"  style="fill: rgb(204, 204, 204);"/>
        </g>
    </g>
    <g  transform="matrix(-1, 0, 0, -1, 1421.026974, 898.75403)">
        <g >
            <polyline points="710.458 457.199 694.743 441.555 726.284 441.555 710.458 457.199"  style="fill: rgb(179, 179, 179);"/>
        </g>
    </g>
    <g  transform="matrix(1, 0, 0, 1.000001, 1025.129086, -210.018976)">
        <g >
            <rect x="-164.292" height="32.083"  style="fill: rgb(153, 153, 153);" width="31.514" y="635.082"/>
        </g>
    </g>
    <g  transform="matrix(0, -1, 1, 0, 443.237, 1325.367002)">
        <g >
            <polyline points="884.245 433.015 868.188 449.115 900.416 449.115 884.245 433.015"  style="fill: rgb(230, 230, 230);"/>
        </g>
    </g>
    <g  transform="matrix(-1, 0, 0, -1, 1753.047979, 866.587035)">
        <g >
            <polyline points="876.469 425.072 860.839 441.515 892.209 441.515 876.469 425.072"  style="fill: rgb(204, 204, 204);"/>
        </g>
    </g>
    <g  transform="matrix(-1, 0, 0, -1, 1753.119993, 898.664004)">
        <g >
            <polyline points="876.505 457.154 860.789 441.51 892.331 441.51 876.505 457.154"  style="fill: rgb(179, 179, 179);"/>
        </g>
    </g>
    <g  transform="matrix(1, 0, 0, 1.000001, 1191.269733, -209.69256)">
        <g >
            <rect x="-164.292" height="32.083"  style="fill: rgb(153, 153, 153);" width="31.514" y="635.085"/>
        </g>
    </g>
    <g  transform="matrix(0, -1, 1, 0, 609.047484, 1491.837525)">
        <g >
            <polyline points="1050.386 433.345 1034.329 449.445 1066.556 449.445 1050.386 433.345"  style="fill: rgb(230, 230, 230);"/>
        </g>
    </g>
    <g  transform="matrix(-1, 0, 0, -1, 2085.329096, 867.244992)">
        <g >
            <polyline points="1042.61 425.401 1026.979 441.844 1058.35 441.844 1042.61 425.401"  style="fill: rgb(204, 204, 204);"/>
        </g>
    </g>
    <g  transform="matrix(-1, 0, 0, -1, 2085.4031, 899.322023)">
        <g >
            <polyline points="1042.646 457.483 1026.931 441.839 1058.472 441.839 1042.646 457.483"  style="fill: rgb(179, 179, 179);"/>
        </g>
    </g>
    <rect x="1193.04" height="32.083"  style="fill: rgb(153, 153, 153);" width="31.514" y="425.508"/>
    <g  transform="matrix(0, -1, 1, 0, 774.99244, 1658.01441)">
        <g >
            <polyline points="1216.447 433.461 1200.39 449.561 1232.617 449.561 1216.447 433.461"  style="fill: rgb(230, 230, 230);"/>
        </g>
    </g>
    <g  transform="matrix(-1, 0, 0, -1, 2417.453147, 867.476989)">
        <g >
            <polyline points="1208.672 425.517 1193.041 441.96 1224.412 441.96 1208.672 425.517"  style="fill: rgb(204, 204, 204);"/>
        </g>
    </g>
    <g  transform="matrix(-1, 0, 0, -1, 2417.522927, 899.553952)">
        <g >
            <polyline points="1208.707 457.599 1192.991 441.955 1224.532 441.955 1208.707 457.599"  style="fill: rgb(179, 179, 179);"/>
        </g>
    </g>
    <rect x="1359.171" height="32.083"  style="fill: rgb(153, 153, 153);" width="31.514" y="425.44"/>
    <g  transform="matrix(0, -1, 1, 0, 941.193461, 1824.077492)">
        <g >
            <polyline points="1382.579 433.392 1366.522 449.492 1398.749 449.492 1382.579 433.392"  style="fill: rgb(230, 230, 230);"/>
        </g>
    </g>
    <g  transform="matrix(-1, 0, 0, -1, 2749.714843, 867.338988)">
        <g >
            <polyline points="1374.803 425.448 1359.172 441.891 1390.543 441.891 1374.803 425.448"  style="fill: rgb(204, 204, 204);"/>
        </g>
    </g>
    <g  transform="matrix(-1, 0, 0, -1, 2749.789092, 899.41797)">
        <g >
            <polyline points="1374.839 457.531 1359.124 441.887 1390.665 441.887 1374.839 457.531"  style="fill: rgb(179, 179, 179);"/>
        </g>
    </g>
    <rect x="1525.063" height="32.083"  style="fill: rgb(153, 153, 153);" width="31.514" y="424.835"/>
    <g  transform="matrix(0, -1, 1, 0, 1107.689582, 1989.367555)">
        <g >
            <polyline points="1548.472 432.789 1532.415 448.889 1564.642 448.889 1548.472 432.789"  style="fill: rgb(230, 230, 230);"/>
        </g>
    </g>
    <g  transform="matrix(-1, 0, 0, -1, 3081.499998, 866.132995)">
        <g >
            <polyline points="1540.695 424.845 1525.064 441.288 1556.436 441.288 1540.695 424.845"  style="fill: rgb(204, 204, 204);"/>
        </g>
    </g>
    <g  transform="matrix(-1, 0, 0, -1, 3081.572996, 898.209961)">
        <g >
            <polyline points="1540.73 456.927 1525.016 441.283 1556.557 441.283 1540.73 456.927"  style="fill: rgb(179, 179, 179);"/>
        </g>
    </g>
    <g  transform="matrix(0.999999, 0, 0, 1, 1855.495065, -209.917297)">
        <g >
            <rect x="-164.292" height="32.083"  style="fill: rgb(153, 153, 153);" width="31.514" y="635.082"/>
        </g>
    </g>
    <g  transform="matrix(0, -1, 1, 0, 1273.501434, 2155.837435)">
        <g >
            <polyline points="1714.613 433.118 1698.556 449.218 1730.783 449.218 1714.613 433.118"  style="fill: rgb(230, 230, 230);"/>
        </g>
    </g>
    <g  transform="matrix(-1, 0, 0, -1, 3413.781981, 866.791017)">
        <g >
            <polyline points="1706.837 425.174 1691.205 441.617 1722.577 441.617 1706.837 425.174"  style="fill: rgb(204, 204, 204);"/>
        </g>
    </g>
    <g  transform="matrix(-1, 0, 0, -1, 3413.85303, 898.86804)">
        <g >
            <polyline points="1706.871 457.256 1691.156 441.612 1722.697 441.612 1706.871 457.256"  style="fill: rgb(179, 179, 179);"/>
        </g>
    </g>
    <rect x="1857.266" height="32.083"  style="fill: rgb(153, 153, 153);" width="31.514" y="425.28"/>
    <g  transform="matrix(0, -1, 1, 0, 1439.446475, 2322.014465)">
        <g >
            <polyline points="1880.674 433.234 1864.617 449.334 1896.844 449.334 1880.674 433.234"  style="fill: rgb(230, 230, 230);"/>
        </g>
    </g>
    <g  transform="matrix(-1, 0, 0, -1, 3745.902842, 867.023012)">
        <g >
            <polyline points="1872.897 425.29 1857.266 441.733 1888.637 441.733 1872.897 425.29"  style="fill: rgb(204, 204, 204);"/>
        </g>
    </g>
    <g  transform="matrix(-1, 0, 0, -1, 3745.977051, 899.099978)">
        <g >
            <polyline points="1872.932 457.372 1857.218 441.728 1888.759 441.728 1872.932 457.372"  style="fill: rgb(179, 179, 179);"/>
        </g>
    </g>
    <g  transform="matrix(0.999995, 0, 0, 1.000001, 2187.687727, -209.87185)">
        <g >
            <rect x="-164.292" height="32.083"  style="fill: rgb(153, 153, 153);" width="31.514" y="635.085"/>
        </g>
    </g>
    <g  transform="matrix(0, -1, 1, 0, 1605.647555, 2488.076576)">
        <g >
            <polyline points="2046.806 433.164 2030.749 449.265 2062.975 449.265 2046.806 433.164"  style="fill: rgb(230, 230, 230);"/>
        </g>
    </g>
    <g  transform="matrix(-1, 0, 0, -1, 4078.168935, 866.885009)">
        <g >
            <polyline points="2039.03 425.221 2023.399 441.664 2054.77 441.664 2039.03 425.221"  style="fill: rgb(204, 204, 204);"/>
        </g>
    </g>
    <g  transform="matrix(-1, 0, 0, -1, 4078.241201, 898.962032)">
        <g >
            <polyline points="2039.065 457.303 2023.35 441.659 2054.891 441.659 2039.065 457.303"  style="fill: rgb(179, 179, 179);"/>
        </g>
    </g>
    <rect x="196.484" height="32.083"  style="fill: rgb(153, 153, 153);" width="31.514" y="598.737"/>
    <g  transform="matrix(0, -1, 1, 0, -394.791471, 834.690459)">
        <g >
            <polyline points="219.893 606.691 203.836 622.791 236.063 622.791 219.893 606.691"  style="fill: rgb(230, 230, 230);"/>
        </g>
    </g>
    <g  transform="matrix(-1, 0, 0, -1, 424.342986, 1213.93701)">
        <g >
            <polyline points="212.117 598.747 196.486 615.19 227.857 615.19 212.117 598.747"  style="fill: rgb(204, 204, 204);"/>
        </g>
    </g>
    <g  transform="matrix(-1, 0, 0, -1, 424.414979, 1246.013915)">
        <g >
            <polyline points="212.152 630.829 196.437 615.185 227.978 615.185 212.152 630.829"  style="fill: rgb(179, 179, 179);"/>
        </g>
    </g>
    <rect x="362.625" height="32.083"  style="fill: rgb(153, 153, 153);" width="31.514" y="599.066"/>
    <g  transform="matrix(0, -1, 1, 0, -228.979497, 1001.160523)">
        <g >
            <polyline points="386.034 607.02 369.977 623.12 402.204 623.12 386.034 607.02"  style="fill: rgb(230, 230, 230);"/>
        </g>
    </g>
    <g  transform="matrix(-1, 0, 0, -1, 756.625014, 1214.594969)">
        <g >
            <polyline points="378.258 599.076 362.627 615.519 393.998 615.519 378.258 599.076"  style="fill: rgb(204, 204, 204);"/>
        </g>
    </g>
    <g  transform="matrix(-1, 0, 0, -1, 756.697007, 1246.671994)">
        <g >
            <polyline points="378.293 631.158 362.578 615.514 394.119 615.514 378.293 631.158"  style="fill: rgb(179, 179, 179);"/>
        </g>
    </g>
    <rect x="528.688" height="32.083"  style="fill: rgb(153, 153, 153);" width="31.514" y="599.182"/>
    <g  transform="matrix(0, -1, 1, 0, -63.034563, 1167.337503)">
        <g >
            <polyline points="552.095 607.136 536.038 623.236 568.265 623.236 552.095 607.136"  style="fill: rgb(230, 230, 230);"/>
        </g>
    </g>
    <g  transform="matrix(-1, 0, 0, -1, 1088.747087, 1214.827027)">
        <g >
            <polyline points="544.319 599.192 528.688 615.635 560.059 615.635 544.319 599.192"  style="fill: rgb(204, 204, 204);"/>
        </g>
    </g>
    <g  transform="matrix(-1, 0, 0, -1, 1088.81896, 1246.904051)">
        <g >
            <polyline points="544.354 631.274 528.639 615.63 560.18 615.63 544.354 631.274"  style="fill: rgb(179, 179, 179);"/>
        </g>
    </g>
    <rect x="694.818" height="32.083"  style="fill: rgb(153, 153, 153);" width="31.514" y="599.114"/>
    <g  transform="matrix(0, -1, 1, 0, 103.166979, 1333.400984)">
        <g >
            <polyline points="718.228 607.067 702.171 623.167 734.397 623.167 718.228 607.067"  style="fill: rgb(230, 230, 230);"/>
        </g>
    </g>
    <g  transform="matrix(-1, 0, 0, -1, 1421.010998, 1214.688965)">
        <g >
            <polyline points="710.451 599.123 694.82 615.566 726.191 615.566 710.451 599.123"  style="fill: rgb(204, 204, 204);"/>
        </g>
    </g>
    <g  transform="matrix(-1, 0, 0, -1, 1421.08303, 1246.765989)">
        <g >
            <polyline points="710.486 631.205 694.771 615.561 726.312 615.561 710.486 631.205"  style="fill: rgb(179, 179, 179);"/>
        </g>
    </g>
    <rect x="860.866" height="32.083"  style="fill: rgb(153, 153, 153);" width="31.514" y="599.07"/>
    <g  transform="matrix(0, -1, 1, 0, 269.258451, 1499.400419)">
        <g >
            <polyline points="884.273 607.021 868.216 623.121 900.443 623.121 884.273 607.021"  style="fill: rgb(230, 230, 230);"/>
        </g>
    </g>
    <g  transform="matrix(-1, 0, 0, -1, 1753.104051, 1214.598994)">
        <g >
            <polyline points="876.497 599.078 860.867 615.521 892.237 615.521 876.497 599.078"  style="fill: rgb(204, 204, 204);"/>
        </g>
    </g>
    <g  transform="matrix(-1, 0, 0, -1, 1753.174016, 1246.676029)">
        <g >
            <polyline points="876.532 631.16 860.816 615.516 892.358 615.516 876.532 631.16"  style="fill: rgb(179, 179, 179);"/>
        </g>
    </g>
    <rect x="1027.006" height="32.083"  style="fill: rgb(153, 153, 153);" width="31.514" y="599.399"/>
    <g  transform="matrix(0, -1, 1, 0, 435.069969, 1665.871973)">
        <g >
            <polyline points="1050.415 607.351 1034.358 623.451 1066.584 623.451 1050.415 607.351"  style="fill: rgb(230, 230, 230);"/>
        </g>
    </g>
    <g  transform="matrix(-1, 0, 0, -1, 2085.385055, 1215.256954)">
        <g >
            <polyline points="1042.637 599.407 1027.007 615.85 1058.378 615.85 1042.637 599.407"  style="fill: rgb(204, 204, 204);"/>
        </g>
    </g>
    <g  transform="matrix(-1, 0, 0, -1, 2085.458996, 1247.333988)">
        <g >
            <polyline points="1042.674 631.489 1026.959 615.845 1058.5 615.845 1042.674 631.489"  style="fill: rgb(179, 179, 179);"/>
        </g>
    </g>
    <g  transform="matrix(1.000004, 0, 0, 1, -333.814874, -338.765747)">
        <g >
            <rect x="1526.877" height="32.083"  style="fill: rgb(153, 153, 153);" width="31.514" y="938.28"/>
        </g>
    </g>
    <g  transform="matrix(0, -1, 1, 0, 601.015001, 1832.048933)">
        <g >
            <polyline points="1216.475 607.467 1200.418 623.567 1232.646 623.567 1216.475 607.467"  style="fill: rgb(230, 230, 230);"/>
        </g>
    </g>
    <g  transform="matrix(-1, 0, 0, -1, 2417.506889, 1215.489011)">
        <g >
            <polyline points="1208.699 599.523 1193.068 615.966 1224.439 615.966 1208.699 599.523"  style="fill: rgb(204, 204, 204);"/>
        </g>
    </g>
    <g  transform="matrix(-1, 0, 0, -1, 2417.580989, 1247.565916)">
        <g >
            <polyline points="1208.735 631.605 1193.02 615.961 1224.561 615.961 1208.735 631.605"  style="fill: rgb(179, 179, 179);"/>
        </g>
    </g>
    <g  transform="matrix(1.000004, 0, 0, 1, -333.803555, -338.765808)">
        <g >
            <rect x="1692.996" height="32.083"  style="fill: rgb(153, 153, 153);" width="31.514" y="938.212"/>
        </g>
    </g>
    <g  transform="matrix(0, -1, 1, 0, 767.215088, 1998.111088)">
        <g >
            <polyline points="1382.606 607.398 1366.55 623.498 1398.776 623.498 1382.606 607.398"  style="fill: rgb(230, 230, 230);"/>
        </g>
    </g>
    <g  transform="matrix(-1, 0, 0, -1, 2749.770085, 1215.35095)">
        <g >
            <polyline points="1374.83 599.454 1359.199 615.897 1390.571 615.897 1374.83 599.454"  style="fill: rgb(204, 204, 204);"/>
        </g>
    </g>
    <g  transform="matrix(-1, 0, 0, -1, 2749.844979, 1247.429932)">
        <g >
            <polyline points="1374.867 631.537 1359.152 615.893 1390.693 615.893 1374.867 631.537"  style="fill: rgb(179, 179, 179);"/>
        </g>
    </g>
    <g  transform="matrix(1.000004, 0, 0, 1, -333.818724, -338.765808)">
        <g >
            <rect x="1858.903" height="32.083"  style="fill: rgb(153, 153, 153);" width="31.514" y="937.607"/>
        </g>
    </g>
    <g  transform="matrix(0, -1, 1, 0, 933.711995, 2163.401932)">
        <g >
            <polyline points="1548.5 606.795 1532.443 622.895 1564.671 622.895 1548.5 606.795"  style="fill: rgb(230, 230, 230);"/>
        </g>
    </g>
    <g  transform="matrix(-1, 0, 0, -1, 3081.556246, 1214.145017)">
        <g >
            <polyline points="1540.723 598.851 1525.092 615.294 1556.464 615.294 1540.723 598.851"  style="fill: rgb(204, 204, 204);"/>
        </g>
    </g>
    <g  transform="matrix(-1, 0, 0, -1, 3081.626847, 1246.221922)">
        <g >
            <polyline points="1540.758 630.933 1525.043 615.289 1556.584 615.289 1540.758 630.933"  style="fill: rgb(179, 179, 179);"/>
        </g>
    </g>
    <g  transform="matrix(0.999999, 0, 0, 1, 1855.523629, -35.911194)">
        <g >
            <rect x="-164.292" height="32.083"  style="fill: rgb(153, 153, 153);" width="31.514" y="635.082"/>
        </g>
    </g>
    <g  transform="matrix(0, -1, 1, 0, 1099.523532, 2329.871558)">
        <g >
            <polyline points="1714.641 607.124 1698.584 623.224 1730.811 623.224 1714.641 607.124"  style="fill: rgb(230, 230, 230);"/>
        </g>
    </g>
    <g  transform="matrix(-1, 0, 0, -1, 3413.838045, 1214.802976)">
        <g >
            <polyline points="1706.865 599.18 1691.233 615.623 1722.605 615.623 1706.865 599.18"  style="fill: rgb(204, 204, 204);"/>
        </g>
    </g>
    <g  transform="matrix(-1, 0, 0, -1, 3413.907056, 1246.880001)">
        <g >
            <polyline points="1706.899 631.262 1691.183 615.618 1722.724 615.618 1706.899 631.262"  style="fill: rgb(179, 179, 179);"/>
        </g>
    </g>
    <g  transform="matrix(1.000004, 0, 0, 1, -0.000847, 174.006134)">
        <g >
            <rect x="1857.29" height="32.083"  style="fill: rgb(153, 153, 153);" width="31.514" y="425.28"/>
        </g>
    </g>
    <g  transform="matrix(0, -1, 1, 0, 1265.468585, 2496.048658)">
        <g >
            <polyline points="1880.703 607.24 1864.645 623.34 1896.872 623.34 1880.703 607.24"  style="fill: rgb(230, 230, 230);"/>
        </g>
    </g>
    <g  transform="matrix(-1, 0, 0, -1, 3745.957017, 1215.035034)">
        <g >
            <polyline points="1872.924 599.296 1857.293 615.739 1888.664 615.739 1872.924 599.296"  style="fill: rgb(204, 204, 204);"/>
        </g>
    </g>
    <g  transform="matrix(-1, 0, 0, -1, 3746.033025, 1247.112058)">
        <g >
            <polyline points="1872.96 631.378 1857.246 615.734 1888.787 615.734 1872.96 631.378"  style="fill: rgb(179, 179, 179);"/>
        </g>
    </g>
    <g  transform="matrix(0.999999, 0, 0, 1, 2187.716592, -35.865723)">
        <g >
            <rect x="-164.291" height="32.083"  style="fill: rgb(153, 153, 153);" width="31.514" y="635.086"/>
        </g>
    </g>
    <g  transform="matrix(0, -1, 1, 0, 1431.668885, 2662.109804)">
        <g >
            <polyline points="2046.834 607.17 2030.777 623.271 2063.002 623.271 2046.834 607.17"  style="fill: rgb(230, 230, 230);"/>
        </g>
    </g>
    <g  transform="matrix(-1, 0, 0, -1, 4078.225142, 1214.896972)">
        <g >
            <polyline points="2039.057 599.227 2023.427 615.67 2054.798 615.67 2039.057 599.227"  style="fill: rgb(204, 204, 204);"/>
        </g>
    </g>
    <g  transform="matrix(-1, 0, 0, -1, 4078.295743, 1246.973996)">
        <g >
            <polyline points="2039.092 631.309 2023.377 615.665 2054.919 615.665 2039.092 631.309"  style="fill: rgb(179, 179, 179);"/>
        </g>
    </g>
</svg>
